SplineFontDB: 3.0
FontName: Geostar-Regular
FullName: Geostar
FamilyName: Geostar
Weight: Book
Copyright: Copyright (c) 2011, Admix Designs (http://www.admixdesigns.com/) with Reserved Font Name Geostar.
Version: 1.002
ItalicAngle: 0
UnderlinePosition: -50
UnderlineWidth: 50
Ascent: 800
Descent: 200
sfntRevision: 0x00010083
LayerCount: 2
Layer: 0 1 "Back"  1
Layer: 1 1 "Fore"  0
XUID: [1021 288 713564382 471248]
FSType: 0
OS2Version: 3
OS2_WeightWidthSlopeOnly: 0
OS2_UseTypoMetrics: 1
CreationTime: 1310550240
ModificationTime: 1312580180
PfmFamily: 17
TTFWeight: 400
TTFWidth: 5
LineGap: 0
VLineGap: 0
Panose: 2 0 0 0 0 0 0 0 0 0
OS2TypoAscent: 122
OS2TypoAOffset: 1
OS2TypoDescent: -26
OS2TypoDOffset: 1
OS2TypoLinegap: 0
OS2WinAscent: 0
OS2WinAOffset: 1
OS2WinDescent: 0
OS2WinDOffset: 1
HheadAscent: 0
HheadAOffset: 1
HheadDescent: 0
HheadDOffset: 1
OS2SubXSize: 700
OS2SubYSize: 650
OS2SubXOff: 0
OS2SubYOff: 140
OS2SupXSize: 700
OS2SupYSize: 650
OS2SupXOff: 0
OS2SupYOff: 477
OS2StrikeYSize: 50
OS2StrikeYPos: 250
OS2Vendor: 'pyrs'
OS2CodePages: 20000111.40000000
OS2UnicodeRanges: 8000002f.0800004a.14000000.00000000
Lookup: 258 0 0 "'kern' Horizontal Kerning in Latin lookup 0"  {"'kern' Horizontal Kerning in Latin lookup 0 subtable"  } ['kern' ('DFLT' <'dflt' > 'latn' <'dflt' > ) ]
DEI: 91125
TtTable: prep
PUSHW_1
 511
SCANCTRL
PUSHB_1
 4
SCANTYPE
EndTTInstrs
ShortTable: maxp 16
  1
  0
  227
  52
  8
  48
  7
  2
  0
  1
  1
  0
  64
  0
  3
  1
EndShort
LangName: 1033 "" "" "" "JoePrince: Geostar: 2011" "" "Version 1.002" "" "Geostar is a trademark of Admix Designs (www.admixdesigns.com)" "Joe Prince" "Joe Prince" "Copyright (c) 2011, Admix Designs (http://www.admixdesigns.com/) with Reserved Font Name Geostar." "http://www.admixdesigns.com/" "http://www.admixdesigns.com/" "This Font Software is licensed under the SIL Open Font License, Version 1.1. This license is available with a FAQ at: http://scripts.sil.org/OFL" "http://scripts.sil.org/OFL" "" "" "" "Geostar" 

StartChar: exclam
Encoding: 33 33 4
Width: 342
Flags: W
LayerCount: 2
Fore
SplineSet
246 225 m 1,0,-1
 95 225 l 1,1,-1
 67 695 l 1,2,-1
 274 695 l 1,3,-1
 246 225 l 1,0,-1
226 650 m 1,4,-1
 115 650 l 1,5,-1
 138 270 l 1,6,-1
 203 270 l 1,7,-1
 226 650 l 1,4,-1
267 0 m 1,8,-1
 75 0 l 1,9,-1
 75 153 l 1,10,-1
 267 153 l 1,11,-1
 267 0 l 1,8,-1
222 108 m 1,12,-1
 120 108 l 1,13,-1
 120 45 l 1,14,-1
 222 45 l 1,15,-1
 222 108 l 1,12,-1
EndSplineSet
EndChar

StartChar: quotedbl
Encoding: 34 34 5
Width: 571
Flags: W
LayerCount: 2
Fore
SplineSet
252 754 m 1,0,-1
 222 440 l 1,1,-1
 79 440 l 1,2,-1
 49 754 l 1,3,-1
 252 754 l 1,0,-1
103 709 m 1,4,-1
 123 485 l 1,5,-1
 178 485 l 1,6,-1
 198 709 l 1,7,-1
 103 709 l 1,4,-1
522 754 m 1,8,-1
 492 440 l 1,9,-1
 349 440 l 1,10,-1
 319 754 l 1,11,-1
 522 754 l 1,8,-1
373 709 m 1,12,-1
 393 485 l 1,13,-1
 448 485 l 1,14,-1
 468 709 l 1,15,-1
 373 709 l 1,12,-1
EndSplineSet
EndChar

StartChar: numbersign
Encoding: 35 35 6
Width: 857
Flags: W
LayerCount: 2
Fore
SplineSet
686 403 m 1,0,-1
 686 249 l 1,1,-1
 805 249 l 1,2,-1
 805 204 l 1,3,-1
 686 204 l 1,4,-1
 686 56 l 1,5,-1
 519 56 l 1,6,-1
 519 204 l 1,7,-1
 337 204 l 1,8,-1
 337 56 l 1,9,-1
 170 56 l 1,10,-1
 170 204 l 1,11,-1
 52 204 l 1,12,-1
 52 249 l 1,13,-1
 170 249 l 1,14,-1
 170 403 l 1,15,-1
 52 403 l 1,16,-1
 52 448 l 1,17,-1
 170 448 l 1,18,-1
 170 597 l 1,19,-1
 337 597 l 1,20,-1
 337 448 l 1,21,-1
 519 448 l 1,22,-1
 519 597 l 1,23,-1
 686 597 l 1,24,-1
 686 448 l 1,25,-1
 805 448 l 1,26,-1
 805 403 l 1,27,-1
 686 403 l 1,0,-1
291 552 m 1,28,-1
 215 552 l 1,29,-1
 215 101 l 1,30,-1
 291 101 l 1,31,-1
 291 552 l 1,28,-1
519 249 m 1,32,-1
 519 403 l 1,33,-1
 337 403 l 1,34,-1
 337 249 l 1,35,-1
 519 249 l 1,32,-1
640 552 m 1,36,-1
 564 552 l 1,37,-1
 564 101 l 1,38,-1
 640 101 l 1,39,-1
 640 552 l 1,36,-1
EndSplineSet
EndChar

StartChar: dollar
Encoding: 36 36 7
Width: 926
Flags: W
LayerCount: 2
Fore
SplineSet
826 510 m 1,0,-1
 826 650 l 1,1,-1
 485 650 l 1,2,-1
 485 370 l 1,3,-1
 871 370 l 1,4,-1
 871 0 l 1,5,-1
 485 0 l 1,6,-1
 485 -122 l 1,7,-1
 440 -122 l 1,8,-1
 440 0 l 1,9,-1
 55 0 l 1,10,-1
 55 185 l 1,11,-1
 100 185 l 1,12,-1
 100 45 l 1,13,-1
 440 45 l 1,14,-1
 440 325 l 1,15,-1
 55 325 l 1,16,-1
 55 695 l 1,17,-1
 440 695 l 1,18,-1
 440 817 l 1,19,-1
 485 817 l 1,20,-1
 485 695 l 1,21,-1
 871 695 l 1,22,-1
 871 510 l 1,23,-1
 826 510 l 1,0,-1
176 650 m 1,24,-1
 100 650 l 1,25,-1
 100 370 l 1,26,-1
 176 370 l 1,27,-1
 176 650 l 1,24,-1
749 45 m 1,28,-1
 826 45 l 1,29,-1
 826 325 l 1,30,-1
 749 325 l 1,31,-1
 749 45 l 1,28,-1
485 325 m 1,32,-1
 485 45 l 1,33,-1
 704 45 l 1,34,-1
 704 325 l 1,35,-1
 485 325 l 1,32,-1
440 650 m 1,36,-1
 222 650 l 1,37,-1
 222 370 l 1,38,-1
 440 370 l 1,39,-1
 440 650 l 1,36,-1
EndSplineSet
EndChar

StartChar: percent
Encoding: 37 37 8
Width: 924
Flags: W
LayerCount: 2
Fore
SplineSet
883 695 m 1,0,-1
 251 0 l 1,1,-1
 44 0 l 1,2,-1
 676 695 l 1,3,-1
 883 695 l 1,0,-1
780 650 m 1,4,-1
 696 650 l 1,5,-1
 146 45 l 1,6,-1
 230 45 l 1,7,-1
 780 650 l 1,4,-1
71 695 m 1,8,-1
 344 695 l 1,9,-1
 344 497 l 1,10,-1
 71 497 l 1,11,-1
 71 695 l 1,8,-1
116 542 m 1,12,-1
 299 542 l 1,13,-1
 299 650 l 1,14,-1
 116 650 l 1,15,-1
 116 542 l 1,12,-1
584 198 m 1,16,-1
 857 198 l 1,17,-1
 857 0 l 1,18,-1
 584 0 l 1,19,-1
 584 198 l 1,16,-1
629 45 m 1,20,-1
 812 45 l 1,21,-1
 812 153 l 1,22,-1
 629 153 l 1,23,-1
 629 45 l 1,20,-1
EndSplineSet
EndChar

StartChar: ampersand
Encoding: 38 38 9
Width: 683
Flags: W
LayerCount: 2
Fore
SplineSet
224 583 m 1,0,-1
 224 371 l 1,1,-1
 520 371 l 1,2,-1
 520 326 l 1,3,-1
 224 326 l 1,4,-1
 224 113 l 1,5,-1
 657 113 l 1,6,-1
 657 68 l 1,7,-1
 397 68 l 1,8,-1
 397 -73 l 1,9,-1
 352 -73 l 1,10,-1
 352 68 l 1,11,-1
 57 68 l 1,12,-1
 57 628 l 1,13,-1
 352 628 l 1,14,-1
 352 770 l 1,15,-1
 397 770 l 1,16,-1
 397 628 l 1,17,-1
 657 628 l 1,18,-1
 657 583 l 1,19,-1
 224 583 l 1,0,-1
179 583 m 1,20,-1
 102 583 l 1,21,-1
 102 113 l 1,22,-1
 179 113 l 1,23,-1
 179 583 l 1,20,-1
EndSplineSet
EndChar

StartChar: quotesingle
Encoding: 39 39 10
Width: 375
Flags: W
LayerCount: 2
Fore
SplineSet
388 754 m 1,0,-1
 232 454 l 1,1,-1
 44 454 l 1,2,-1
 200 754 l 1,3,-1
 388 754 l 1,0,-1
204 499 m 1,4,-1
 313 709 l 1,5,-1
 227 709 l 1,6,-1
 118 499 l 1,7,-1
 204 499 l 1,4,-1
EndSplineSet
EndChar

StartChar: parenleft
Encoding: 40 40 11
Width: 385
Flags: W
LayerCount: 2
Fore
SplineSet
215 38 m 1,0,-1
 384 -99 l 1,1,-1
 312 -99 l 1,2,-1
 48 115 l 1,3,-1
 48 554 l 1,4,-1
 312 767 l 1,5,-1
 384 767 l 1,6,-1
 215 631 l 1,7,-1
 215 38 l 1,0,-1
170 75 m 1,8,-1
 170 594 l 1,9,-1
 93 532 l 1,10,-1
 93 137 l 1,11,-1
 170 75 l 1,8,-1
EndSplineSet
EndChar

StartChar: parenright
Encoding: 41 41 12
Width: 385
Flags: W
LayerCount: 2
Fore
SplineSet
170 631 m 1,0,-1
 1 767 l 1,1,-1
 73 767 l 1,2,-1
 337 554 l 1,3,-1
 337 115 l 1,4,-1
 73 -99 l 1,5,-1
 1 -99 l 1,6,-1
 170 38 l 1,7,-1
 170 631 l 1,0,-1
292 137 m 1,8,-1
 292 532 l 1,9,-1
 215 594 l 1,10,-1
 215 75 l 1,11,-1
 292 137 l 1,8,-1
EndSplineSet
EndChar

StartChar: asterisk
Encoding: 42 42 13
Width: 589
Flags: W
LayerCount: 2
Fore
SplineSet
539 635 m 1,0,-1
 539 482 l 1,1,-1
 427 482 l 1,2,-1
 483 385 l 1,3,-1
 350 308 l 1,4,-1
 294 405 l 1,5,-1
 238 308 l 1,6,-1
 106 385 l 1,7,-1
 162 482 l 1,8,-1
 50 482 l 1,9,-1
 50 635 l 1,10,-1
 162 635 l 1,11,-1
 106 732 l 1,12,-1
 238 808 l 1,13,-1
 294 711 l 1,14,-1
 350 808 l 1,15,-1
 483 732 l 1,16,-1
 427 635 l 1,17,-1
 539 635 l 1,0,-1
494 590 m 1,18,-1
 349 590 l 1,19,-1
 421 715 l 1,20,-1
 367 747 l 1,21,-1
 294 621 l 1,22,-1
 222 747 l 1,23,-1
 167 715 l 1,24,-1
 240 590 l 1,25,-1
 95 590 l 1,26,-1
 95 527 l 1,27,-1
 240 527 l 1,28,-1
 167 401 l 1,29,-1
 222 370 l 1,30,-1
 294 495 l 1,31,-1
 367 370 l 1,32,-1
 421 401 l 1,33,-1
 349 527 l 1,34,-1
 494 527 l 1,35,-1
 494 590 l 1,18,-1
EndSplineSet
EndChar

StartChar: plus
Encoding: 43 43 14
Width: 567
Flags: W
LayerCount: 2
Fore
SplineSet
517 409 m 1,0,-1
 517 256 l 1,1,-1
 306 256 l 1,2,-1
 306 99 l 1,3,-1
 261 99 l 1,4,-1
 261 256 l 1,5,-1
 50 256 l 1,6,-1
 50 409 l 1,7,-1
 261 409 l 1,8,-1
 261 566 l 1,9,-1
 306 566 l 1,10,-1
 306 409 l 1,11,-1
 517 409 l 1,0,-1
472 364 m 1,12,-1
 95 364 l 1,13,-1
 95 301 l 1,14,-1
 472 301 l 1,15,-1
 472 364 l 1,12,-1
EndSplineSet
EndChar

StartChar: comma
Encoding: 44 44 15
Width: 362
Flags: W
LayerCount: 2
Fore
SplineSet
303 153 m 1,0,-1
 147 -147 l 1,1,-1
 -41 -147 l 1,2,-1
 115 153 l 1,3,-1
 303 153 l 1,0,-1
119 -102 m 1,4,-1
 228 108 l 1,5,-1
 142 108 l 1,6,-1
 33 -102 l 1,7,-1
 119 -102 l 1,4,-1
EndSplineSet
EndChar

StartChar: hyphen
Encoding: 45 45 16
Width: 585
Flags: W
LayerCount: 2
Fore
SplineSet
526 256 m 1,0,-1
 59 256 l 1,1,-1
 59 409 l 1,2,-1
 526 409 l 1,3,-1
 526 256 l 1,0,-1
481 364 m 1,4,-1
 104 364 l 1,5,-1
 104 301 l 1,6,-1
 481 301 l 1,7,-1
 481 364 l 1,4,-1
EndSplineSet
EndChar

StartChar: period
Encoding: 46 46 17
Width: 310
Flags: W
LayerCount: 2
Fore
SplineSet
251 0 m 1,0,-1
 59 0 l 1,1,-1
 59 153 l 1,2,-1
 251 153 l 1,3,-1
 251 0 l 1,0,-1
206 108 m 1,4,-1
 104 108 l 1,5,-1
 104 45 l 1,6,-1
 206 45 l 1,7,-1
 206 108 l 1,4,-1
EndSplineSet
EndChar

StartChar: slash
Encoding: 47 47 18
Width: 714
Flags: W
LayerCount: 2
Fore
SplineSet
687 757 m 1,0,-1
 215 -147 l 1,1,-1
 27 -147 l 1,2,-1
 499 757 l 1,3,-1
 687 757 l 1,0,-1
187 -102 m 1,4,-1
 612 712 l 1,5,-1
 526 712 l 1,6,-1
 101 -102 l 1,7,-1
 187 -102 l 1,4,-1
EndSplineSet
EndChar

StartChar: zero
Encoding: 48 48 19
Width: 948
Flags: W
LayerCount: 2
Fore
SplineSet
882 695 m 1,0,-1
 882 0 l 1,1,-1
 66 0 l 1,2,-1
 66 695 l 1,3,-1
 882 695 l 1,0,-1
188 45 m 1,4,-1
 188 650 l 1,5,-1
 111 650 l 1,6,-1
 111 45 l 1,7,-1
 188 45 l 1,4,-1
233 73 m 1,8,-1
 813 650 l 1,9,-1
 233 650 l 1,10,-1
 233 73 l 1,8,-1
837 611 m 1,11,-1
 269 45 l 1,12,-1
 837 45 l 1,13,-1
 837 611 l 1,11,-1
EndSplineSet
EndChar

StartChar: one
Encoding: 49 49 20
Width: 652
Flags: W
LayerCount: 2
Fore
SplineSet
439 45 m 1,0,-1
 652 45 l 1,1,-1
 652 0 l 1,2,-1
 34 0 l 1,3,-1
 34 45 l 1,4,-1
 272 45 l 1,5,-1
 272 650 l 1,6,-1
 34 650 l 1,7,-1
 34 695 l 1,8,-1
 439 695 l 1,9,-1
 439 45 l 1,0,-1
394 650 m 1,10,-1
 317 650 l 1,11,-1
 317 45 l 1,12,-1
 394 45 l 1,13,-1
 394 650 l 1,10,-1
EndSplineSet
EndChar

StartChar: two
Encoding: 50 50 21
Width: 940
Flags: W
LayerCount: 2
Fore
SplineSet
878 695 m 1,0,-1
 878 325 l 1,1,-1
 229 325 l 1,2,-1
 229 45 l 1,3,-1
 833 45 l 1,4,-1
 833 185 l 1,5,-1
 878 185 l 1,6,-1
 878 0 l 1,7,-1
 62 0 l 1,8,-1
 62 370 l 1,9,-1
 711 370 l 1,10,-1
 711 650 l 1,11,-1
 107 650 l 1,12,-1
 107 510 l 1,13,-1
 62 510 l 1,14,-1
 62 695 l 1,15,-1
 878 695 l 1,0,-1
107 325 m 1,16,-1
 107 45 l 1,17,-1
 184 45 l 1,18,-1
 184 325 l 1,19,-1
 107 325 l 1,16,-1
757 370 m 1,20,-1
 833 370 l 1,21,-1
 833 650 l 1,22,-1
 757 650 l 1,23,-1
 757 370 l 1,20,-1
EndSplineSet
EndChar

StartChar: three
Encoding: 51 51 22
Width: 939
Flags: W
LayerCount: 2
Fore
SplineSet
57 510 m 1,0,-1
 57 695 l 1,1,-1
 873 695 l 1,2,-1
 873 0 l 1,3,-1
 57 0 l 1,4,-1
 57 185 l 1,5,-1
 102 185 l 1,6,-1
 102 45 l 1,7,-1
 706 45 l 1,8,-1
 706 325 l 1,9,-1
 219 325 l 1,10,-1
 219 370 l 1,11,-1
 706 370 l 1,12,-1
 706 650 l 1,13,-1
 102 650 l 1,14,-1
 102 510 l 1,15,-1
 57 510 l 1,0,-1
751 45 m 1,16,-1
 828 45 l 1,17,-1
 828 650 l 1,18,-1
 751 650 l 1,19,-1
 751 45 l 1,16,-1
EndSplineSet
EndChar

StartChar: four
Encoding: 52 52 23
Width: 923
Flags: W
LayerCount: 2
Fore
SplineSet
857 0 m 1,0,-1
 690 0 l 1,1,-1
 690 325 l 1,2,-1
 41 325 l 1,3,-1
 41 695 l 1,4,-1
 86 695 l 1,5,-1
 86 370 l 1,6,-1
 690 370 l 1,7,-1
 690 695 l 1,8,-1
 857 695 l 1,9,-1
 857 0 l 1,0,-1
812 650 m 1,10,-1
 736 650 l 1,11,-1
 736 45 l 1,12,-1
 812 45 l 1,13,-1
 812 650 l 1,10,-1
EndSplineSet
EndChar

StartChar: five
Encoding: 53 53 24
Width: 940
Flags: W
LayerCount: 2
Fore
SplineSet
878 695 m 1,0,-1
 878 510 l 1,1,-1
 833 510 l 1,2,-1
 833 650 l 1,3,-1
 229 650 l 1,4,-1
 229 370 l 1,5,-1
 878 370 l 1,6,-1
 878 0 l 1,7,-1
 62 0 l 1,8,-1
 62 185 l 1,9,-1
 107 185 l 1,10,-1
 107 45 l 1,11,-1
 711 45 l 1,12,-1
 711 325 l 1,13,-1
 62 325 l 1,14,-1
 62 695 l 1,15,-1
 878 695 l 1,0,-1
756 325 m 1,16,-1
 756 45 l 1,17,-1
 833 45 l 1,18,-1
 833 325 l 1,19,-1
 756 325 l 1,16,-1
183 650 m 1,20,-1
 107 650 l 1,21,-1
 107 370 l 1,22,-1
 183 370 l 1,23,-1
 183 650 l 1,20,-1
EndSplineSet
EndChar

StartChar: six
Encoding: 54 54 25
Width: 944
Flags: W
LayerCount: 2
Fore
SplineSet
837 510 m 1,0,-1
 837 650 l 1,1,-1
 233 650 l 1,2,-1
 233 370 l 1,3,-1
 882 370 l 1,4,-1
 882 0 l 1,5,-1
 66 0 l 1,6,-1
 66 695 l 1,7,-1
 882 695 l 1,8,-1
 882 510 l 1,9,-1
 837 510 l 1,0,-1
233 325 m 1,10,-1
 233 45 l 1,11,-1
 837 45 l 1,12,-1
 837 325 l 1,13,-1
 233 325 l 1,10,-1
187 650 m 1,14,-1
 111 650 l 1,15,-1
 111 45 l 1,16,-1
 187 45 l 1,17,-1
 187 650 l 1,14,-1
EndSplineSet
EndChar

StartChar: seven
Encoding: 55 55 26
Width: 843
Flags: W
LayerCount: 2
Fore
SplineSet
777 0 m 1,0,-1
 610 0 l 1,1,-1
 610 650 l 1,2,-1
 65 650 l 1,3,-1
 65 510 l 1,4,-1
 20 510 l 1,5,-1
 20 695 l 1,6,-1
 777 695 l 1,7,-1
 777 0 l 1,0,-1
731 650 m 1,8,-1
 655 650 l 1,9,-1
 655 45 l 1,10,-1
 731 45 l 1,11,-1
 731 650 l 1,8,-1
EndSplineSet
EndChar

StartChar: eight
Encoding: 56 56 27
Width: 948
Flags: W
LayerCount: 2
Fore
SplineSet
882 0 m 1,0,-1
 66 0 l 1,1,-1
 66 695 l 1,2,-1
 882 695 l 1,3,-1
 882 0 l 1,0,-1
836 325 m 1,4,-1
 233 325 l 1,5,-1
 233 45 l 1,6,-1
 836 45 l 1,7,-1
 836 325 l 1,4,-1
233 371 m 1,8,-1
 836 371 l 1,9,-1
 836 650 l 1,10,-1
 233 650 l 1,11,-1
 233 371 l 1,8,-1
188 650 m 1,12,-1
 111 650 l 1,13,-1
 111 45 l 1,14,-1
 188 45 l 1,15,-1
 188 650 l 1,12,-1
EndSplineSet
EndChar

StartChar: nine
Encoding: 57 57 28
Width: 944
Flags: W
LayerCount: 2
Fore
SplineSet
107 185 m 1,0,-1
 107 45 l 1,1,-1
 711 45 l 1,2,-1
 711 325 l 1,3,-1
 62 325 l 1,4,-1
 62 695 l 1,5,-1
 878 695 l 1,6,-1
 878 0 l 1,7,-1
 62 0 l 1,8,-1
 62 185 l 1,9,-1
 107 185 l 1,0,-1
711 370 m 1,10,-1
 711 650 l 1,11,-1
 107 650 l 1,12,-1
 107 370 l 1,13,-1
 711 370 l 1,10,-1
757 45 m 1,14,-1
 833 45 l 1,15,-1
 833 650 l 1,16,-1
 757 650 l 1,17,-1
 757 45 l 1,14,-1
EndSplineSet
EndChar

StartChar: colon
Encoding: 58 58 29
Width: 322
Flags: W
LayerCount: 2
Fore
SplineSet
257 0 m 1,0,-1
 65 0 l 1,1,-1
 65 153 l 1,2,-1
 257 153 l 1,3,-1
 257 0 l 1,0,-1
212 108 m 1,4,-1
 110 108 l 1,5,-1
 110 45 l 1,6,-1
 212 45 l 1,7,-1
 212 108 l 1,4,-1
257 401 m 1,8,-1
 65 401 l 1,9,-1
 65 554 l 1,10,-1
 257 554 l 1,11,-1
 257 401 l 1,8,-1
212 509 m 1,12,-1
 110 509 l 1,13,-1
 110 446 l 1,14,-1
 212 446 l 1,15,-1
 212 509 l 1,12,-1
EndSplineSet
EndChar

StartChar: semicolon
Encoding: 59 59 30
Width: 384
Flags: W
LayerCount: 2
Fore
SplineSet
303 401 m 1,0,-1
 111 401 l 1,1,-1
 111 554 l 1,2,-1
 303 554 l 1,3,-1
 303 401 l 1,0,-1
258 509 m 1,4,-1
 156 509 l 1,5,-1
 156 446 l 1,6,-1
 258 446 l 1,7,-1
 258 509 l 1,4,-1
312 153 m 1,8,-1
 156 -147 l 1,9,-1
 -32 -147 l 1,10,-1
 124 153 l 1,11,-1
 312 153 l 1,8,-1
128 -102 m 1,12,-1
 237 108 l 1,13,-1
 151 108 l 1,14,-1
 42 -102 l 1,15,-1
 128 -102 l 1,12,-1
EndSplineSet
EndChar

StartChar: less
Encoding: 60 60 31
Width: 649
Flags: W
LayerCount: 2
Fore
SplineSet
570 563 m 1,0,-1
 272 412 l 1,1,-1
 570 261 l 1,2,-1
 570 75 l 1,3,-1
 37 344 l 1,4,-1
 570 613 l 1,5,-1
 570 563 l 1,0,-1
222 387 m 1,6,-1
 138 345 l 1,7,-1
 525 149 l 1,8,-1
 525 234 l 1,9,-1
 222 387 l 1,6,-1
EndSplineSet
EndChar

StartChar: equal
Encoding: 61 61 32
Width: 684
Flags: W
LayerCount: 2
Fore
SplineSet
619 396 m 1,0,-1
 65 396 l 1,1,-1
 65 549 l 1,2,-1
 619 549 l 1,3,-1
 619 396 l 1,0,-1
574 504 m 1,4,-1
 110 504 l 1,5,-1
 110 441 l 1,6,-1
 574 441 l 1,7,-1
 574 504 l 1,4,-1
619 133 m 1,8,-1
 65 133 l 1,9,-1
 65 286 l 1,10,-1
 619 286 l 1,11,-1
 619 133 l 1,8,-1
574 241 m 1,12,-1
 110 241 l 1,13,-1
 110 178 l 1,14,-1
 574 178 l 1,15,-1
 574 241 l 1,12,-1
EndSplineSet
EndChar

StartChar: greater
Encoding: 62 62 33
Width: 649
Flags: W
LayerCount: 2
Fore
SplineSet
79 125 m 1,0,-1
 377 276 l 1,1,-1
 79 427 l 1,2,-1
 79 613 l 1,3,-1
 612 344 l 1,4,-1
 79 75 l 1,5,-1
 79 125 l 1,0,-1
427 301 m 1,6,-1
 511 343 l 1,7,-1
 124 539 l 1,8,-1
 124 454 l 1,9,-1
 427 301 l 1,6,-1
EndSplineSet
EndChar

StartChar: question
Encoding: 63 63 34
Width: 732
Flags: W
LayerCount: 2
Fore
SplineSet
674 695 m 1,0,-1
 674 325 l 1,1,-1
 411 325 l 1,2,-1
 411 212 l 1,3,-1
 244 212 l 1,4,-1
 244 370 l 1,5,-1
 507 370 l 1,6,-1
 507 650 l 1,7,-1
 89 650 l 1,8,-1
 89 510 l 1,9,-1
 44 510 l 1,10,-1
 44 695 l 1,11,-1
 674 695 l 1,0,-1
289 325 m 1,12,-1
 289 257 l 1,13,-1
 366 257 l 1,14,-1
 366 325 l 1,15,-1
 289 325 l 1,12,-1
553 370 m 1,16,-1
 629 370 l 1,17,-1
 629 650 l 1,18,-1
 553 650 l 1,19,-1
 553 370 l 1,16,-1
423 0 m 1,20,-1
 231 0 l 1,21,-1
 231 153 l 1,22,-1
 423 153 l 1,23,-1
 423 0 l 1,20,-1
378 108 m 1,24,-1
 276 108 l 1,25,-1
 276 45 l 1,26,-1
 378 45 l 1,27,-1
 378 108 l 1,24,-1
EndSplineSet
EndChar

StartChar: at
Encoding: 64 64 35
Width: 855
Flags: W
LayerCount: 2
Fore
SplineSet
623 314 m 1,0,-1
 357 314 l 1,1,-1
 357 154 l 1,2,-1
 190 154 l 1,3,-1
 190 540 l 1,4,-1
 668 540 l 1,5,-1
 668 199 l 1,6,-1
 744 199 l 1,7,-1
 744 616 l 1,8,-1
 114 616 l 1,9,-1
 114 78 l 1,10,-1
 789 78 l 1,11,-1
 789 33 l 1,12,-1
 69 33 l 1,13,-1
 69 661 l 1,14,-1
 789 661 l 1,15,-1
 789 154 l 1,16,-1
 623 154 l 1,17,-1
 623 314 l 1,0,-1
311 495 m 1,18,-1
 235 495 l 1,19,-1
 235 199 l 1,20,-1
 311 199 l 1,21,-1
 311 495 l 1,18,-1
623 359 m 1,22,-1
 623 495 l 1,23,-1
 357 495 l 1,24,-1
 357 359 l 1,25,-1
 623 359 l 1,22,-1
EndSplineSet
EndChar

StartChar: A
Encoding: 65 65 36
Width: 1063
Flags: W
LayerCount: 2
Fore
SplineSet
1046 45 m 1,0,-1
 1046 0 l 1,1,-1
 803 0 l 1,2,-1
 803 45 l 1,3,-1
 902 45 l 1,4,-1
 902 325 l 1,5,-1
 298 325 l 1,6,-1
 298 45 l 1,7,-1
 397 45 l 1,8,-1
 397 0 l 1,9,-1
 31 0 l 1,10,-1
 31 45 l 1,11,-1
 131 45 l 1,12,-1
 131 650 l 1,13,-1
 31 650 l 1,14,-1
 31 695 l 1,15,-1
 947 695 l 1,16,-1
 947 45 l 1,17,-1
 1046 45 l 1,0,-1
252 650 m 1,18,-1
 176 650 l 1,19,-1
 176 45 l 1,20,-1
 252 45 l 1,21,-1
 252 650 l 1,18,-1
902 370 m 1,22,-1
 902 650 l 1,23,-1
 298 650 l 1,24,-1
 298 370 l 1,25,-1
 902 370 l 1,22,-1
EndSplineSet
EndChar

StartChar: B
Encoding: 66 66 37
Width: 1013
Flags: W
LayerCount: 2
Fore
SplineSet
908 348 m 1,0,1
 948 317 948 317 948 266 c 2,2,-1
 948 0 l 1,3,-1
 32 0 l 1,4,-1
 32 45 l 1,5,-1
 131 45 l 1,6,-1
 131 650 l 1,7,-1
 32 650 l 1,8,-1
 32 695 l 1,9,-1
 948 695 l 1,10,-1
 948 430 l 2,11,12
 948 379 948 379 908 348 c 1,0,1
253 650 m 1,13,-1
 176 650 l 1,14,-1
 176 45 l 1,15,-1
 253 45 l 1,16,-1
 253 650 l 1,13,-1
902 266 m 2,17,18
 902 291 902 291 885 308 c 128,-1,19
 868 325 868 325 844 325 c 2,20,-1
 298 325 l 1,21,-1
 298 45 l 1,22,-1
 902 45 l 1,23,-1
 902 266 l 2,17,18
902 650 m 1,24,-1
 298 650 l 1,25,-1
 298 371 l 1,26,-1
 844 371 l 2,27,28
 868 371 868 371 885 388 c 128,-1,29
 902 405 902 405 902 430 c 2,30,-1
 902 650 l 1,24,-1
EndSplineSet
EndChar

StartChar: C
Encoding: 67 67 38
Width: 951
Flags: W
LayerCount: 2
Fore
SplineSet
855 510 m 1,0,-1
 855 650 l 1,1,-1
 298 650 l 1,2,-1
 298 45 l 1,3,-1
 855 45 l 1,4,-1
 855 185 l 1,5,-1
 900 185 l 1,6,-1
 900 0 l 1,7,-1
 32 0 l 1,8,-1
 32 45 l 1,9,-1
 131 45 l 1,10,-1
 131 650 l 1,11,-1
 32 650 l 1,12,-1
 32 695 l 1,13,-1
 900 695 l 1,14,-1
 900 510 l 1,15,-1
 855 510 l 1,0,-1
253 650 m 1,16,-1
 177 650 l 1,17,-1
 177 45 l 1,18,-1
 253 45 l 1,19,-1
 253 650 l 1,16,-1
EndSplineSet
EndChar

StartChar: D
Encoding: 68 68 39
Width: 1008
Flags: W
LayerCount: 2
Fore
SplineSet
804 695 m 2,0,1
 863 695 863 695 905.5 652.5 c 128,-1,2
 948 610 948 610 948 550 c 2,3,-1
 948 144 l 2,4,5
 948 85 948 85 905.5 42.5 c 128,-1,6
 863 0 863 0 804 0 c 2,7,-1
 32 0 l 1,8,-1
 32 45 l 1,9,-1
 131 45 l 1,10,-1
 131 650 l 1,11,-1
 32 650 l 1,12,-1
 32 695 l 1,13,-1
 804 695 l 2,0,1
253 650 m 1,14,-1
 177 650 l 1,15,-1
 177 45 l 1,16,-1
 253 45 l 1,17,-1
 253 650 l 1,14,-1
903 550 m 2,18,19
 903 591 903 591 873.5 620.5 c 128,-1,20
 844 650 844 650 804 650 c 2,21,-1
 298 650 l 1,22,-1
 298 45 l 1,23,-1
 804 45 l 2,24,25
 844 45 844 45 873.5 74.5 c 128,-1,26
 903 104 903 104 903 144 c 2,27,-1
 903 550 l 2,18,19
EndSplineSet
EndChar

StartChar: E
Encoding: 69 69 40
Width: 997
Flags: W
LayerCount: 2
Fore
SplineSet
903 510 m 1,0,-1
 903 650 l 1,1,-1
 298 650 l 1,2,-1
 298 370 l 1,3,-1
 740 370 l 1,4,-1
 740 469 l 1,5,-1
 786 469 l 1,6,-1
 786 226 l 1,7,-1
 740 226 l 1,8,-1
 740 325 l 1,9,-1
 298 325 l 1,10,-1
 298 45 l 1,11,-1
 903 45 l 1,12,-1
 903 185 l 1,13,-1
 948 185 l 1,14,-1
 948 0 l 1,15,-1
 32 0 l 1,16,-1
 32 45 l 1,17,-1
 131 45 l 1,18,-1
 131 650 l 1,19,-1
 32 650 l 1,20,-1
 32 695 l 1,21,-1
 948 695 l 1,22,-1
 948 510 l 1,23,-1
 903 510 l 1,0,-1
253 650 m 1,24,-1
 176 650 l 1,25,-1
 176 45 l 1,26,-1
 253 45 l 1,27,-1
 253 650 l 1,24,-1
EndSplineSet
EndChar

StartChar: F
Encoding: 70 70 41
Width: 937
Flags: W
LayerCount: 2
Fore
SplineSet
922 695 m 1,0,-1
 922 510 l 1,1,-1
 877 510 l 1,2,-1
 877 650 l 1,3,-1
 298 650 l 1,4,-1
 298 370 l 1,5,-1
 714 370 l 1,6,-1
 714 469 l 1,7,-1
 759 469 l 1,8,-1
 759 226 l 1,9,-1
 714 226 l 1,10,-1
 714 325 l 1,11,-1
 298 325 l 1,12,-1
 298 45 l 1,13,-1
 397 45 l 1,14,-1
 397 0 l 1,15,-1
 32 0 l 1,16,-1
 32 45 l 1,17,-1
 131 45 l 1,18,-1
 131 650 l 1,19,-1
 32 650 l 1,20,-1
 32 695 l 1,21,-1
 922 695 l 1,0,-1
253 650 m 1,22,-1
 176 650 l 1,23,-1
 176 45 l 1,24,-1
 253 45 l 1,25,-1
 253 650 l 1,22,-1
EndSplineSet
EndChar

StartChar: G
Encoding: 71 71 42
Width: 1009
Flags: W
LayerCount: 2
Fore
SplineSet
902 510 m 1,0,-1
 902 650 l 1,1,-1
 298 650 l 1,2,-1
 298 45 l 1,3,-1
 902 45 l 1,4,-1
 902 325 l 1,5,-1
 519 325 l 1,6,-1
 519 370 l 1,7,-1
 947 370 l 1,8,-1
 947 0 l 1,9,-1
 31 0 l 1,10,-1
 31 45 l 1,11,-1
 131 45 l 1,12,-1
 131 650 l 1,13,-1
 31 650 l 1,14,-1
 31 695 l 1,15,-1
 947 695 l 1,16,-1
 947 510 l 1,17,-1
 902 510 l 1,0,-1
252 650 m 1,18,-1
 176 650 l 1,19,-1
 176 45 l 1,20,-1
 252 45 l 1,21,-1
 252 650 l 1,18,-1
EndSplineSet
EndChar

StartChar: H
Encoding: 72 72 43
Width: 1078
Flags: W
LayerCount: 2
Fore
SplineSet
947 650 m 1,0,-1
 947 45 l 1,1,-1
 1046 45 l 1,2,-1
 1046 0 l 1,3,-1
 803 0 l 1,4,-1
 803 45 l 1,5,-1
 902 45 l 1,6,-1
 902 325 l 1,7,-1
 297 325 l 1,8,-1
 297 45 l 1,9,-1
 397 45 l 1,10,-1
 397 0 l 1,11,-1
 31 0 l 1,12,-1
 31 45 l 1,13,-1
 131 45 l 1,14,-1
 131 650 l 1,15,-1
 31 650 l 1,16,-1
 31 695 l 1,17,-1
 397 695 l 1,18,-1
 397 650 l 1,19,-1
 297 650 l 1,20,-1
 297 370 l 1,21,-1
 902 370 l 1,22,-1
 902 650 l 1,23,-1
 803 650 l 1,24,-1
 803 695 l 1,25,-1
 1046 695 l 1,26,-1
 1046 650 l 1,27,-1
 947 650 l 1,0,-1
252 650 m 1,28,-1
 176 650 l 1,29,-1
 176 45 l 1,30,-1
 252 45 l 1,31,-1
 252 650 l 1,28,-1
EndSplineSet
EndChar

StartChar: I
Encoding: 73 73 44
Width: 565
Flags: W
LayerCount: 2
Fore
SplineSet
366 650 m 1,0,-1
 366 45 l 1,1,-1
 546 45 l 1,2,-1
 546 0 l 1,3,-1
 19 0 l 1,4,-1
 19 45 l 1,5,-1
 199 45 l 1,6,-1
 199 650 l 1,7,-1
 19 650 l 1,8,-1
 19 695 l 1,9,-1
 546 695 l 1,10,-1
 546 650 l 1,11,-1
 366 650 l 1,0,-1
321 650 m 1,12,-1
 244 650 l 1,13,-1
 244 45 l 1,14,-1
 321 45 l 1,15,-1
 321 650 l 1,12,-1
EndSplineSet
EndChar

StartChar: J
Encoding: 74 74 45
Width: 889
Flags: W
LayerCount: 2
Fore
SplineSet
758 650 m 1,0,-1
 758 45 l 1,1,-1
 857 45 l 1,2,-1
 857 0 l 1,3,-1
 21 0 l 1,4,-1
 21 185 l 1,5,-1
 66 185 l 1,6,-1
 66 45 l 1,7,-1
 591 45 l 1,8,-1
 591 650 l 1,9,-1
 491 650 l 1,10,-1
 491 695 l 1,11,-1
 857 695 l 1,12,-1
 857 650 l 1,13,-1
 758 650 l 1,0,-1
712 650 m 1,14,-1
 636 650 l 1,15,-1
 636 45 l 1,16,-1
 712 45 l 1,17,-1
 712 650 l 1,14,-1
EndSplineSet
EndChar

StartChar: K
Encoding: 75 75 46
Width: 1001
Flags: W
LayerCount: 2
Fore
SplineSet
896 45 m 1,0,-1
 1007 45 l 1,1,-1
 1007 0 l 1,2,-1
 763 0 l 1,3,-1
 763 45 l 1,4,-1
 840 45 l 1,5,-1
 630 325 l 1,6,-1
 298 325 l 1,7,-1
 298 45 l 1,8,-1
 398 45 l 1,9,-1
 398 0 l 1,10,-1
 32 0 l 1,11,-1
 32 45 l 1,12,-1
 131 45 l 1,13,-1
 131 650 l 1,14,-1
 32 650 l 1,15,-1
 32 695 l 1,16,-1
 398 695 l 1,17,-1
 398 650 l 1,18,-1
 298 650 l 1,19,-1
 298 370 l 1,20,-1
 629 370 l 1,21,-1
 803 650 l 1,22,-1
 722 650 l 1,23,-1
 722 695 l 1,24,-1
 966 695 l 1,25,-1
 966 650 l 1,26,-1
 857 650 l 1,27,-1
 669 349 l 1,28,-1
 896 45 l 1,0,-1
253 45 m 1,29,-1
 253 650 l 1,30,-1
 176 650 l 1,31,-1
 176 45 l 1,32,-1
 253 45 l 1,29,-1
EndSplineSet
EndChar

StartChar: L
Encoding: 76 76 47
Width: 918
Flags: W
LayerCount: 2
Fore
SplineSet
897 185 m 1,0,-1
 897 0 l 1,1,-1
 31 0 l 1,2,-1
 31 45 l 1,3,-1
 131 45 l 1,4,-1
 131 650 l 1,5,-1
 31 650 l 1,6,-1
 31 695 l 1,7,-1
 397 695 l 1,8,-1
 397 650 l 1,9,-1
 298 650 l 1,10,-1
 298 45 l 1,11,-1
 852 45 l 1,12,-1
 852 185 l 1,13,-1
 897 185 l 1,0,-1
252 650 m 1,14,-1
 176 650 l 1,15,-1
 176 45 l 1,16,-1
 252 45 l 1,17,-1
 252 650 l 1,14,-1
EndSplineSet
EndChar

StartChar: M
Encoding: 77 77 48
Width: 1281
Flags: W
LayerCount: 2
Fore
SplineSet
1150 650 m 1,0,-1
 1150 45 l 1,1,-1
 1249 45 l 1,2,-1
 1249 0 l 1,3,-1
 884 0 l 1,4,-1
 884 45 l 1,5,-1
 983 45 l 1,6,-1
 983 586 l 1,7,-1
 640 -23 l 1,8,-1
 298 586 l 1,9,-1
 298 45 l 1,10,-1
 397 45 l 1,11,-1
 397 0 l 1,12,-1
 31 0 l 1,13,-1
 31 45 l 1,14,-1
 131 45 l 1,15,-1
 131 650 l 1,16,-1
 31 650 l 1,17,-1
 31 695 l 1,18,-1
 288 695 l 1,19,-1
 640 69 l 1,20,-1
 993 695 l 1,21,-1
 1249 695 l 1,22,-1
 1249 650 l 1,23,-1
 1150 650 l 1,0,-1
252 45 m 1,24,-1
 252 650 l 1,25,-1
 176 650 l 1,26,-1
 176 45 l 1,27,-1
 252 45 l 1,24,-1
1105 45 m 1,28,-1
 1105 650 l 1,29,-1
 1028 650 l 1,30,-1
 1028 45 l 1,31,-1
 1105 45 l 1,28,-1
EndSplineSet
EndChar

StartChar: N
Encoding: 78 78 49
Width: 1119
Flags: W
LayerCount: 2
Fore
SplineSet
988 650 m 1,0,-1
 988 45 l 1,1,-1
 1087 45 l 1,2,-1
 1087 0 l 1,3,-1
 834 0 l 1,4,-1
 298 612 l 1,5,-1
 298 45 l 1,6,-1
 397 45 l 1,7,-1
 397 0 l 1,8,-1
 32 0 l 1,9,-1
 32 45 l 1,10,-1
 131 45 l 1,11,-1
 131 650 l 1,12,-1
 32 650 l 1,13,-1
 32 695 l 1,14,-1
 286 695 l 1,15,-1
 821 83 l 1,16,-1
 821 650 l 1,17,-1
 722 650 l 1,18,-1
 722 695 l 1,19,-1
 1087 695 l 1,20,-1
 1087 650 l 1,21,-1
 988 650 l 1,0,-1
253 45 m 1,22,-1
 253 650 l 1,23,-1
 176 650 l 1,24,-1
 176 45 l 1,25,-1
 253 45 l 1,22,-1
943 650 m 1,26,-1
 866 650 l 1,27,-1
 866 45 l 1,28,-1
 943 45 l 1,29,-1
 943 650 l 1,26,-1
EndSplineSet
EndChar

StartChar: O
Encoding: 79 79 50
Width: 948
Flags: W
LayerCount: 2
Fore
SplineSet
882 695 m 1,0,-1
 882 0 l 1,1,-1
 66 0 l 1,2,-1
 66 695 l 1,3,-1
 882 695 l 1,0,-1
188 45 m 1,4,-1
 188 650 l 1,5,-1
 111 650 l 1,6,-1
 111 45 l 1,7,-1
 188 45 l 1,4,-1
837 650 m 1,8,-1
 233 650 l 1,9,-1
 233 45 l 1,10,-1
 837 45 l 1,11,-1
 837 650 l 1,8,-1
EndSplineSet
EndChar

StartChar: P
Encoding: 80 80 51
Width: 956
Flags: W
LayerCount: 2
Fore
SplineSet
298 325 m 1,0,-1
 298 45 l 1,1,-1
 398 45 l 1,2,-1
 398 0 l 1,3,-1
 32 0 l 1,4,-1
 32 45 l 1,5,-1
 131 45 l 1,6,-1
 131 650 l 1,7,-1
 32 650 l 1,8,-1
 32 695 l 1,9,-1
 917 695 l 1,10,-1
 917 325 l 1,11,-1
 298 325 l 1,0,-1
298 650 m 1,12,-1
 298 370 l 1,13,-1
 872 370 l 1,14,-1
 872 650 l 1,15,-1
 298 650 l 1,12,-1
253 45 m 1,16,-1
 253 650 l 1,17,-1
 177 650 l 1,18,-1
 177 45 l 1,19,-1
 253 45 l 1,16,-1
EndSplineSet
EndChar

StartChar: Q
Encoding: 81 81 52
Width: 948
Flags: W
LayerCount: 2
Fore
SplineSet
882 0 m 1,0,-1
 711 0 l 1,1,-1
 832 -80 l 1,2,-1
 806 -118 l 1,3,-1
 629 0 l 1,4,-1
 66 0 l 1,5,-1
 66 695 l 1,6,-1
 882 695 l 1,7,-1
 882 0 l 1,0,-1
187 45 m 1,8,-1
 187 650 l 1,9,-1
 111 650 l 1,10,-1
 111 45 l 1,11,-1
 187 45 l 1,8,-1
837 650 m 1,12,-1
 232 650 l 1,13,-1
 232 45 l 1,14,-1
 562 45 l 1,15,-1
 441 126 l 1,16,-1
 466 163 l 1,17,-1
 643 45 l 1,18,-1
 837 45 l 1,19,-1
 837 650 l 1,12,-1
EndSplineSet
EndChar

StartChar: R
Encoding: 82 82 53
Width: 1064
Flags: W
LayerCount: 2
Fore
SplineSet
908 348 m 1,0,1
 948 317 948 317 948 266 c 2,2,-1
 948 45 l 1,3,-1
 1047 45 l 1,4,-1
 1047 0 l 1,5,-1
 804 0 l 1,6,-1
 804 45 l 1,7,-1
 902 45 l 1,8,-1
 902 266 l 2,9,10
 902 291 902 291 885 308 c 128,-1,11
 868 325 868 325 844 325 c 2,12,-1
 298 325 l 1,13,-1
 298 45 l 1,14,-1
 398 45 l 1,15,-1
 398 0 l 1,16,-1
 32 0 l 1,17,-1
 32 45 l 1,18,-1
 131 45 l 1,19,-1
 131 650 l 1,20,-1
 32 650 l 1,21,-1
 32 695 l 1,22,-1
 948 695 l 1,23,-1
 948 430 l 2,24,25
 948 379 948 379 908 348 c 1,0,1
253 650 m 1,26,-1
 177 650 l 1,27,-1
 177 45 l 1,28,-1
 253 45 l 1,29,-1
 253 650 l 1,26,-1
902 650 m 1,30,-1
 298 650 l 1,31,-1
 298 371 l 1,32,-1
 844 371 l 2,33,34
 868 371 868 371 885 388 c 128,-1,35
 902 405 902 405 902 430 c 2,36,-1
 902 650 l 1,30,-1
EndSplineSet
EndChar

StartChar: S
Encoding: 83 83 54
Width: 940
Flags: W
LayerCount: 2
Fore
SplineSet
878 695 m 1,0,-1
 878 510 l 1,1,-1
 833 510 l 1,2,-1
 833 650 l 1,3,-1
 229 650 l 1,4,-1
 229 370 l 1,5,-1
 878 370 l 1,6,-1
 878 0 l 1,7,-1
 62 0 l 1,8,-1
 62 185 l 1,9,-1
 107 185 l 1,10,-1
 107 45 l 1,11,-1
 711 45 l 1,12,-1
 711 325 l 1,13,-1
 62 325 l 1,14,-1
 62 695 l 1,15,-1
 878 695 l 1,0,-1
756 325 m 1,16,-1
 756 45 l 1,17,-1
 833 45 l 1,18,-1
 833 325 l 1,19,-1
 756 325 l 1,16,-1
183 650 m 1,20,-1
 107 650 l 1,21,-1
 107 370 l 1,22,-1
 183 370 l 1,23,-1
 183 650 l 1,20,-1
EndSplineSet
EndChar

StartChar: T
Encoding: 84 84 55
Width: 971
Flags: W
LayerCount: 2
Fore
SplineSet
952 695 m 1,0,-1
 952 510 l 1,1,-1
 907 510 l 1,2,-1
 907 650 l 1,3,-1
 569 650 l 1,4,-1
 569 45 l 1,5,-1
 669 45 l 1,6,-1
 669 0 l 1,7,-1
 303 0 l 1,8,-1
 303 45 l 1,9,-1
 402 45 l 1,10,-1
 402 650 l 1,11,-1
 64 650 l 1,12,-1
 64 510 l 1,13,-1
 19 510 l 1,14,-1
 19 695 l 1,15,-1
 952 695 l 1,0,-1
524 650 m 1,16,-1
 447 650 l 1,17,-1
 447 45 l 1,18,-1
 524 45 l 1,19,-1
 524 650 l 1,16,-1
EndSplineSet
EndChar

StartChar: U
Encoding: 85 85 56
Width: 1063
Flags: W
LayerCount: 2
Fore
SplineSet
1047 650 m 1,0,-1
 948 650 l 1,1,-1
 948 0 l 1,2,-1
 32 0 l 1,3,-1
 32 45 l 1,4,-1
 131 45 l 1,5,-1
 131 650 l 1,6,-1
 32 650 l 1,7,-1
 32 695 l 1,8,-1
 397 695 l 1,9,-1
 397 650 l 1,10,-1
 298 650 l 1,11,-1
 298 45 l 1,12,-1
 903 45 l 1,13,-1
 903 650 l 1,14,-1
 803 650 l 1,15,-1
 803 695 l 1,16,-1
 1047 695 l 1,17,-1
 1047 650 l 1,0,-1
253 650 m 1,18,-1
 176 650 l 1,19,-1
 176 45 l 1,20,-1
 253 45 l 1,21,-1
 253 650 l 1,18,-1
EndSplineSet
EndChar

StartChar: V
Encoding: 86 86 57
Width: 1040
Flags: W
LayerCount: 2
Fore
SplineSet
803 695 m 1,0,-1
 1047 695 l 1,1,-1
 1047 650 l 1,2,-1
 939 650 l 1,3,-1
 695 0 l 1,4,-1
 32 0 l 1,5,-1
 32 45 l 1,6,-1
 131 45 l 1,7,-1
 131 650 l 1,8,-1
 32 650 l 1,9,-1
 32 695 l 1,10,-1
 397 695 l 1,11,-1
 397 650 l 1,12,-1
 298 650 l 1,13,-1
 298 45 l 1,14,-1
 662 45 l 1,15,-1
 889 650 l 1,16,-1
 803 650 l 1,17,-1
 803 695 l 1,0,-1
253 650 m 1,18,-1
 176 650 l 1,19,-1
 176 45 l 1,20,-1
 253 45 l 1,21,-1
 253 650 l 1,18,-1
EndSplineSet
EndChar

StartChar: W
Encoding: 87 87 58
Width: 1363
Flags: W
LayerCount: 2
Fore
SplineSet
1232 650 m 1,0,-1
 1232 45 l 1,1,-1
 1331 45 l 1,2,-1
 1331 0 l 1,3,-1
 32 0 l 1,4,-1
 32 45 l 1,5,-1
 131 45 l 1,6,-1
 131 650 l 1,7,-1
 32 650 l 1,8,-1
 32 695 l 1,9,-1
 398 695 l 1,10,-1
 398 650 l 1,11,-1
 298 650 l 1,12,-1
 298 45 l 1,13,-1
 659 45 l 1,14,-1
 659 650 l 1,15,-1
 560 650 l 1,16,-1
 560 695 l 1,17,-1
 803 695 l 1,18,-1
 803 650 l 1,19,-1
 704 650 l 1,20,-1
 704 45 l 1,21,-1
 1065 45 l 1,22,-1
 1065 650 l 1,23,-1
 966 650 l 1,24,-1
 966 695 l 1,25,-1
 1331 695 l 1,26,-1
 1331 650 l 1,27,-1
 1232 650 l 1,0,-1
253 650 m 1,28,-1
 177 650 l 1,29,-1
 177 45 l 1,30,-1
 253 45 l 1,31,-1
 253 650 l 1,28,-1
1187 650 m 1,32,-1
 1110 650 l 1,33,-1
 1110 45 l 1,34,-1
 1187 45 l 1,35,-1
 1187 650 l 1,32,-1
EndSplineSet
EndChar

StartChar: X
Encoding: 88 88 59
Width: 955
Flags: W
LayerCount: 2
Fore
SplineSet
841 45 m 1,0,-1
 948 45 l 1,1,-1
 948 0 l 1,2,-1
 542 0 l 1,3,-1
 542 45 l 1,4,-1
 621 45 l 1,5,-1
 404 300 l 1,6,-1
 172 45 l 1,7,-1
 250 45 l 1,8,-1
 250 0 l 1,9,-1
 7 0 l 1,10,-1
 7 45 l 1,11,-1
 107 45 l 1,12,-1
 374 334 l 1,13,-1
 105 650 l 1,14,-1
 14 650 l 1,15,-1
 14 695 l 1,16,-1
 420 695 l 1,17,-1
 420 650 l 1,18,-1
 324 650 l 1,19,-1
 538 399 l 1,20,-1
 763 650 l 1,21,-1
 694 650 l 1,22,-1
 694 695 l 1,23,-1
 938 695 l 1,24,-1
 938 650 l 1,25,-1
 827 650 l 1,26,-1
 567 365 l 1,27,-1
 841 45 l 1,0,-1
782 45 m 1,28,-1
 265 650 l 1,29,-1
 164 650 l 1,30,-1
 681 45 l 1,31,-1
 782 45 l 1,28,-1
EndSplineSet
EndChar

StartChar: Y
Encoding: 89 89 60
Width: 924
Flags: W
LayerCount: 2
Fore
SplineSet
686 695 m 1,0,-1
 929 695 l 1,1,-1
 929 650 l 1,2,-1
 818 650 l 1,3,-1
 546 339 l 1,4,-1
 546 45 l 1,5,-1
 645 45 l 1,6,-1
 645 0 l 1,7,-1
 280 0 l 1,8,-1
 280 45 l 1,9,-1
 379 45 l 1,10,-1
 379 339 l 1,11,-1
 107 650 l 1,12,-1
 -5 650 l 1,13,-1
 -5 695 l 1,14,-1
 239 695 l 1,15,-1
 239 650 l 1,16,-1
 167 650 l 1,17,-1
 412 370 l 1,18,-1
 513 370 l 1,19,-1
 758 650 l 1,20,-1
 686 650 l 1,21,-1
 686 695 l 1,0,-1
501 45 m 1,22,-1
 501 325 l 1,23,-1
 424 325 l 1,24,-1
 424 45 l 1,25,-1
 501 45 l 1,22,-1
EndSplineSet
EndChar

StartChar: Z
Encoding: 90 90 61
Width: 901
Flags: W
LayerCount: 2
Fore
SplineSet
863 185 m 1,0,-1
 863 0 l 1,1,-1
 25 0 l 1,2,-1
 612 650 l 1,3,-1
 84 650 l 1,4,-1
 84 510 l 1,5,-1
 39 510 l 1,6,-1
 39 695 l 1,7,-1
 877 695 l 1,8,-1
 291 45 l 1,9,-1
 818 45 l 1,10,-1
 818 185 l 1,11,-1
 863 185 l 1,0,-1
776 650 m 1,12,-1
 672 650 l 1,13,-1
 127 45 l 1,14,-1
 230 45 l 1,15,-1
 776 650 l 1,12,-1
EndSplineSet
EndChar

StartChar: bracketleft
Encoding: 91 91 62
Width: 438
Flags: W
LayerCount: 2
Fore
SplineSet
237 722 m 1,0,-1
 237 -54 l 1,1,-1
 417 -54 l 1,2,-1
 417 -99 l 1,3,-1
 70 -99 l 1,4,-1
 70 767 l 1,5,-1
 417 767 l 1,6,-1
 417 722 l 1,7,-1
 237 722 l 1,0,-1
192 722 m 1,8,-1
 115 722 l 1,9,-1
 115 -54 l 1,10,-1
 192 -54 l 1,11,-1
 192 722 l 1,8,-1
EndSplineSet
EndChar

StartChar: backslash
Encoding: 92 92 63
Width: 714
Flags: W
LayerCount: 2
Fore
SplineSet
215 757 m 1,0,-1
 687 -147 l 1,1,-1
 499 -147 l 1,2,-1
 27 757 l 1,3,-1
 215 757 l 1,0,-1
613 -102 m 1,4,-1
 188 712 l 1,5,-1
 102 712 l 1,6,-1
 527 -102 l 1,7,-1
 613 -102 l 1,4,-1
EndSplineSet
EndChar

StartChar: bracketright
Encoding: 93 93 64
Width: 438
Flags: W
LayerCount: 2
Fore
SplineSet
21 722 m 1,0,-1
 21 767 l 1,1,-1
 368 767 l 1,2,-1
 368 -99 l 1,3,-1
 21 -99 l 1,4,-1
 21 -54 l 1,5,-1
 201 -54 l 1,6,-1
 201 722 l 1,7,-1
 21 722 l 1,0,-1
246 -54 m 1,8,-1
 323 -54 l 1,9,-1
 323 722 l 1,10,-1
 246 722 l 1,11,-1
 246 -54 l 1,8,-1
EndSplineSet
EndChar

StartChar: asciicircum
Encoding: 94 94 65
Width: 505
Flags: W
LayerCount: 2
Fore
SplineSet
464 318 m 1,0,-1
 414 318 l 1,1,-1
 324 494 l 1,2,-1
 235 318 l 1,3,-1
 49 318 l 1,4,-1
 256 729 l 1,5,-1
 464 318 l 1,0,-1
299 544 m 1,6,-1
 257 628 l 1,7,-1
 123 363 l 1,8,-1
 208 363 l 1,9,-1
 299 544 l 1,6,-1
EndSplineSet
EndChar

StartChar: underscore
Encoding: 95 95 66
Width: 857
Flags: W
LayerCount: 2
Fore
SplineSet
785 -97 m 1,0,-1
 72 -97 l 1,1,-1
 72 -52 l 1,2,-1
 785 -52 l 1,3,-1
 785 -97 l 1,0,-1
EndSplineSet
EndChar

StartChar: grave
Encoding: 96 96 67
Width: 423
Flags: W
LayerCount: 2
Fore
SplineSet
265 710 m 1,0,-1
 389 546 l 1,1,-1
 222 546 l 1,2,-1
 66 710 l 1,3,-1
 265 710 l 1,0,-1
245 591 m 1,4,-1
 299 591 l 1,5,-1
 243 665 l 1,6,-1
 172 665 l 1,7,-1
 245 591 l 1,4,-1
EndSplineSet
EndChar

StartChar: a
Encoding: 97 97 68
Width: 787
Flags: W
LayerCount: 2
Fore
SplineSet
679 45 m 1,0,-1
 778 45 l 1,1,-1
 778 0 l 1,2,-1
 55 0 l 1,3,-1
 55 257 l 1,4,-1
 512 257 l 1,5,-1
 512 424 l 1,6,-1
 100 424 l 1,7,-1
 100 347 l 1,8,-1
 55 347 l 1,9,-1
 55 469 l 1,10,-1
 679 469 l 1,11,-1
 679 45 l 1,0,-1
512 45 m 1,12,-1
 512 212 l 1,13,-1
 100 212 l 1,14,-1
 100 45 l 1,15,-1
 512 45 l 1,12,-1
634 424 m 1,16,-1
 557 424 l 1,17,-1
 557 45 l 1,18,-1
 634 45 l 1,19,-1
 634 424 l 1,16,-1
EndSplineSet
EndChar

StartChar: b
Encoding: 98 98 69
Width: 758
Flags: W
LayerCount: 2
Fore
SplineSet
698 469 m 1,0,-1
 698 0 l 1,1,-1
 60 0 l 1,2,-1
 60 650 l 1,3,-1
 -39 650 l 1,4,-1
 -39 695 l 1,5,-1
 227 695 l 1,6,-1
 227 469 l 1,7,-1
 698 469 l 1,0,-1
182 650 m 1,8,-1
 105 650 l 1,9,-1
 105 45 l 1,10,-1
 182 45 l 1,11,-1
 182 650 l 1,8,-1
653 45 m 1,12,-1
 653 424 l 1,13,-1
 227 424 l 1,14,-1
 227 45 l 1,15,-1
 653 45 l 1,12,-1
EndSplineSet
EndChar

StartChar: c
Encoding: 99 99 70
Width: 733
Flags: W
LayerCount: 2
Fore
SplineSet
639 122 m 1,0,-1
 684 122 l 1,1,-1
 684 0 l 1,2,-1
 60 0 l 1,3,-1
 60 469 l 1,4,-1
 684 469 l 1,5,-1
 684 347 l 1,6,-1
 639 347 l 1,7,-1
 639 424 l 1,8,-1
 227 424 l 1,9,-1
 227 45 l 1,10,-1
 639 45 l 1,11,-1
 639 122 l 1,0,-1
182 424 m 1,12,-1
 105 424 l 1,13,-1
 105 45 l 1,14,-1
 182 45 l 1,15,-1
 182 424 l 1,12,-1
EndSplineSet
EndChar

StartChar: d
Encoding: 100 100 71
Width: 817
Flags: W
LayerCount: 2
Fore
SplineSet
531 469 m 1,0,-1
 531 650 l 1,1,-1
 432 650 l 1,2,-1
 432 695 l 1,3,-1
 698 695 l 1,4,-1
 698 45 l 1,5,-1
 797 45 l 1,6,-1
 797 0 l 1,7,-1
 60 0 l 1,8,-1
 60 469 l 1,9,-1
 531 469 l 1,0,-1
576 45 m 1,10,-1
 653 45 l 1,11,-1
 653 650 l 1,12,-1
 576 650 l 1,13,-1
 576 45 l 1,10,-1
105 45 m 1,14,-1
 531 45 l 1,15,-1
 531 424 l 1,16,-1
 105 424 l 1,17,-1
 105 45 l 1,14,-1
EndSplineSet
EndChar

StartChar: e
Encoding: 101 101 72
Width: 739
Flags: W
LayerCount: 2
Fore
SplineSet
60 469 m 1,0,-1
 684 469 l 1,1,-1
 684 212 l 1,2,-1
 227 212 l 1,3,-1
 227 45 l 1,4,-1
 639 45 l 1,5,-1
 639 122 l 1,6,-1
 684 122 l 1,7,-1
 684 0 l 1,8,-1
 60 0 l 1,9,-1
 60 469 l 1,0,-1
227 424 m 1,10,-1
 227 257 l 1,11,-1
 639 257 l 1,12,-1
 639 424 l 1,13,-1
 227 424 l 1,10,-1
105 45 m 1,14,-1
 182 45 l 1,15,-1
 182 424 l 1,16,-1
 105 424 l 1,17,-1
 105 45 l 1,14,-1
EndSplineSet
EndChar

StartChar: f
Encoding: 102 102 73
Width: 530
Flags: W
LayerCount: 2
Fore
SplineSet
301 650 m 1,0,-1
 301 469 l 1,1,-1
 516 469 l 1,2,-1
 516 424 l 1,3,-1
 301 424 l 1,4,-1
 301 45 l 1,5,-1
 400 45 l 1,6,-1
 400 0 l 1,7,-1
 35 0 l 1,8,-1
 35 45 l 1,9,-1
 134 45 l 1,10,-1
 134 424 l 1,11,-1
 35 424 l 1,12,-1
 35 469 l 1,13,-1
 134 469 l 1,14,-1
 134 695 l 1,15,-1
 552 695 l 1,16,-1
 552 650 l 1,17,-1
 301 650 l 1,0,-1
256 650 m 1,18,-1
 179 650 l 1,19,-1
 179 45 l 1,20,-1
 256 45 l 1,21,-1
 256 650 l 1,18,-1
EndSplineSet
EndChar

StartChar: g
Encoding: 103 103 74
Width: 758
Flags: W
LayerCount: 2
Fore
SplineSet
698 -226 m 1,0,-1
 60 -226 l 1,1,-1
 60 -104 l 1,2,-1
 105 -104 l 1,3,-1
 105 -181 l 1,4,-1
 531 -181 l 1,5,-1
 531 0 l 1,6,-1
 60 0 l 1,7,-1
 60 469 l 1,8,-1
 698 469 l 1,9,-1
 698 -226 l 1,0,-1
531 424 m 1,10,-1
 105 424 l 1,11,-1
 105 45 l 1,12,-1
 531 45 l 1,13,-1
 531 424 l 1,10,-1
653 424 m 1,14,-1
 576 424 l 1,15,-1
 576 -181 l 1,16,-1
 653 -181 l 1,17,-1
 653 424 l 1,14,-1
EndSplineSet
EndChar

StartChar: h
Encoding: 104 104 75
Width: 866
Flags: W
LayerCount: 2
Fore
SplineSet
850 45 m 1,0,-1
 850 0 l 1,1,-1
 591 0 l 1,2,-1
 591 45 l 1,3,-1
 698 45 l 1,4,-1
 698 424 l 1,5,-1
 286 424 l 1,6,-1
 286 45 l 1,7,-1
 385 45 l 1,8,-1
 385 0 l 1,9,-1
 20 0 l 1,10,-1
 20 45 l 1,11,-1
 119 45 l 1,12,-1
 119 650 l 1,13,-1
 20 650 l 1,14,-1
 20 695 l 1,15,-1
 286 695 l 1,16,-1
 286 469 l 1,17,-1
 743 469 l 1,18,-1
 743 45 l 1,19,-1
 850 45 l 1,0,-1
241 650 m 1,20,-1
 164 650 l 1,21,-1
 164 45 l 1,22,-1
 241 45 l 1,23,-1
 241 650 l 1,20,-1
EndSplineSet
EndChar

StartChar: i
Encoding: 105 105 76
Width: 420
Flags: W
LayerCount: 2
Fore
SplineSet
301 45 m 1,0,-1
 400 45 l 1,1,-1
 400 0 l 1,2,-1
 35 0 l 1,3,-1
 35 45 l 1,4,-1
 134 45 l 1,5,-1
 134 424 l 1,6,-1
 35 424 l 1,7,-1
 35 469 l 1,8,-1
 301 469 l 1,9,-1
 301 45 l 1,0,-1
256 424 m 1,10,-1
 179 424 l 1,11,-1
 179 45 l 1,12,-1
 256 45 l 1,13,-1
 256 424 l 1,10,-1
308 542 m 1,14,-1
 127 542 l 1,15,-1
 127 695 l 1,16,-1
 308 695 l 1,17,-1
 308 542 l 1,14,-1
263 650 m 1,18,-1
 172 650 l 1,19,-1
 172 587 l 1,20,-1
 263 587 l 1,21,-1
 263 650 l 1,18,-1
EndSplineSet
EndChar

StartChar: j
Encoding: 106 106 77
Width: 345
Flags: W
LayerCount: 2
Fore
SplineSet
286 469 m 1,0,-1
 286 -226 l 1,1,-1
 -206 -226 l 1,2,-1
 -206 -104 l 1,3,-1
 -161 -104 l 1,4,-1
 -161 -181 l 1,5,-1
 119 -181 l 1,6,-1
 119 424 l 1,7,-1
 20 424 l 1,8,-1
 20 469 l 1,9,-1
 286 469 l 1,0,-1
241 424 m 1,10,-1
 164 424 l 1,11,-1
 164 -181 l 1,12,-1
 241 -181 l 1,13,-1
 241 424 l 1,10,-1
293 542 m 1,14,-1
 112 542 l 1,15,-1
 112 695 l 1,16,-1
 293 695 l 1,17,-1
 293 542 l 1,14,-1
248 650 m 1,18,-1
 157 650 l 1,19,-1
 157 587 l 1,20,-1
 248 587 l 1,21,-1
 248 650 l 1,18,-1
EndSplineSet
EndChar

StartChar: k
Encoding: 107 107 78
Width: 783
Flags: W
LayerCount: 2
Fore
SplineSet
757 45 m 1,0,-1
 757 0 l 1,1,-1
 513 0 l 1,2,-1
 513 45 l 1,3,-1
 590 45 l 1,4,-1
 471 212 l 1,5,-1
 286 212 l 1,6,-1
 286 45 l 1,7,-1
 386 45 l 1,8,-1
 386 0 l 1,9,-1
 20 0 l 1,10,-1
 20 45 l 1,11,-1
 119 45 l 1,12,-1
 119 650 l 1,13,-1
 20 650 l 1,14,-1
 20 695 l 1,15,-1
 286 695 l 1,16,-1
 286 257 l 1,17,-1
 470 257 l 1,18,-1
 581 424 l 1,19,-1
 500 424 l 1,20,-1
 500 469 l 1,21,-1
 744 469 l 1,22,-1
 744 424 l 1,23,-1
 635 424 l 1,24,-1
 510 236 l 1,25,-1
 646 45 l 1,26,-1
 757 45 l 1,0,-1
241 650 m 1,27,-1
 164 650 l 1,28,-1
 164 45 l 1,29,-1
 241 45 l 1,30,-1
 241 650 l 1,27,-1
EndSplineSet
EndChar

StartChar: l
Encoding: 108 108 79
Width: 405
Flags: W
LayerCount: 2
Fore
SplineSet
286 45 m 1,0,-1
 385 45 l 1,1,-1
 385 0 l 1,2,-1
 20 0 l 1,3,-1
 20 45 l 1,4,-1
 119 45 l 1,5,-1
 119 650 l 1,6,-1
 20 650 l 1,7,-1
 20 695 l 1,8,-1
 286 695 l 1,9,-1
 286 45 l 1,0,-1
241 650 m 1,10,-1
 164 650 l 1,11,-1
 164 45 l 1,12,-1
 241 45 l 1,13,-1
 241 650 l 1,10,-1
EndSplineSet
EndChar

StartChar: m
Encoding: 109 109 80
Width: 1196
Flags: W
LayerCount: 2
Fore
SplineSet
1180 45 m 1,0,-1
 1180 0 l 1,1,-1
 921 0 l 1,2,-1
 921 45 l 1,3,-1
 1028 45 l 1,4,-1
 1028 424 l 1,5,-1
 683 424 l 1,6,-1
 683 45 l 1,7,-1
 790 45 l 1,8,-1
 790 0 l 1,9,-1
 531 0 l 1,10,-1
 531 45 l 1,11,-1
 638 45 l 1,12,-1
 638 424 l 1,13,-1
 301 424 l 1,14,-1
 301 45 l 1,15,-1
 400 45 l 1,16,-1
 400 0 l 1,17,-1
 35 0 l 1,18,-1
 35 45 l 1,19,-1
 134 45 l 1,20,-1
 134 424 l 1,21,-1
 35 424 l 1,22,-1
 35 469 l 1,23,-1
 1073 469 l 1,24,-1
 1073 45 l 1,25,-1
 1180 45 l 1,0,-1
256 424 m 1,26,-1
 179 424 l 1,27,-1
 179 45 l 1,28,-1
 256 45 l 1,29,-1
 256 424 l 1,26,-1
EndSplineSet
EndChar

StartChar: n
Encoding: 110 110 81
Width: 881
Flags: W
LayerCount: 2
Fore
SplineSet
35 469 m 1,0,-1
 758 469 l 1,1,-1
 758 45 l 1,2,-1
 865 45 l 1,3,-1
 865 0 l 1,4,-1
 606 0 l 1,5,-1
 606 45 l 1,6,-1
 713 45 l 1,7,-1
 713 424 l 1,8,-1
 301 424 l 1,9,-1
 301 45 l 1,10,-1
 400 45 l 1,11,-1
 400 0 l 1,12,-1
 35 0 l 1,13,-1
 35 45 l 1,14,-1
 134 45 l 1,15,-1
 134 424 l 1,16,-1
 35 424 l 1,17,-1
 35 469 l 1,0,-1
256 45 m 1,18,-1
 256 424 l 1,19,-1
 179 424 l 1,20,-1
 179 45 l 1,21,-1
 256 45 l 1,18,-1
EndSplineSet
EndChar

StartChar: o
Encoding: 111 111 82
Width: 744
Flags: W
LayerCount: 2
Fore
SplineSet
684 0 m 1,0,-1
 60 0 l 1,1,-1
 60 469 l 1,2,-1
 684 469 l 1,3,-1
 684 0 l 1,0,-1
639 424 m 1,4,-1
 227 424 l 1,5,-1
 227 45 l 1,6,-1
 639 45 l 1,7,-1
 639 424 l 1,4,-1
182 424 m 1,8,-1
 105 424 l 1,9,-1
 105 45 l 1,10,-1
 182 45 l 1,11,-1
 182 424 l 1,8,-1
EndSplineSet
EndChar

StartChar: p
Encoding: 112 112 83
Width: 817
Flags: W
LayerCount: 2
Fore
SplineSet
20 -181 m 1,0,-1
 119 -181 l 1,1,-1
 119 424 l 1,2,-1
 20 424 l 1,3,-1
 20 469 l 1,4,-1
 757 469 l 1,5,-1
 757 0 l 1,6,-1
 286 0 l 1,7,-1
 286 -181 l 1,8,-1
 385 -181 l 1,9,-1
 385 -226 l 1,10,-1
 20 -226 l 1,11,-1
 20 -181 l 1,0,-1
712 424 m 1,12,-1
 286 424 l 1,13,-1
 286 45 l 1,14,-1
 712 45 l 1,15,-1
 712 424 l 1,12,-1
241 424 m 1,16,-1
 164 424 l 1,17,-1
 164 -181 l 1,18,-1
 241 -181 l 1,19,-1
 241 424 l 1,16,-1
EndSplineSet
EndChar

StartChar: q
Encoding: 113 113 84
Width: 758
Flags: W
LayerCount: 2
Fore
SplineSet
797 -226 m 1,0,-1
 432 -226 l 1,1,-1
 432 -181 l 1,2,-1
 531 -181 l 1,3,-1
 531 0 l 1,4,-1
 60 0 l 1,5,-1
 60 469 l 1,6,-1
 698 469 l 1,7,-1
 698 -181 l 1,8,-1
 797 -181 l 1,9,-1
 797 -226 l 1,0,-1
105 45 m 1,10,-1
 531 45 l 1,11,-1
 531 424 l 1,12,-1
 105 424 l 1,13,-1
 105 45 l 1,10,-1
576 -181 m 1,14,-1
 653 -181 l 1,15,-1
 653 424 l 1,16,-1
 576 424 l 1,17,-1
 576 -181 l 1,14,-1
EndSplineSet
EndChar

StartChar: r
Encoding: 114 114 85
Width: 695
Flags: W
LayerCount: 2
Fore
SplineSet
35 469 m 1,0,-1
 671 469 l 1,1,-1
 671 348 l 1,2,-1
 626 348 l 1,3,-1
 626 424 l 1,4,-1
 301 424 l 1,5,-1
 301 45 l 1,6,-1
 400 45 l 1,7,-1
 400 0 l 1,8,-1
 35 0 l 1,9,-1
 35 45 l 1,10,-1
 134 45 l 1,11,-1
 134 424 l 1,12,-1
 35 424 l 1,13,-1
 35 469 l 1,0,-1
256 45 m 1,14,-1
 256 424 l 1,15,-1
 179 424 l 1,16,-1
 179 45 l 1,17,-1
 256 45 l 1,14,-1
EndSplineSet
EndChar

StartChar: s
Encoding: 115 115 86
Width: 734
Flags: W
LayerCount: 2
Fore
SplineSet
679 469 m 1,0,-1
 679 347 l 1,1,-1
 634 347 l 1,2,-1
 634 424 l 1,3,-1
 222 424 l 1,4,-1
 222 257 l 1,5,-1
 679 257 l 1,6,-1
 679 0 l 1,7,-1
 55 0 l 1,8,-1
 55 122 l 1,9,-1
 100 122 l 1,10,-1
 100 45 l 1,11,-1
 512 45 l 1,12,-1
 512 212 l 1,13,-1
 55 212 l 1,14,-1
 55 469 l 1,15,-1
 679 469 l 1,0,-1
557 212 m 1,16,-1
 557 45 l 1,17,-1
 634 45 l 1,18,-1
 634 212 l 1,19,-1
 557 212 l 1,16,-1
177 424 m 1,20,-1
 100 424 l 1,21,-1
 100 257 l 1,22,-1
 177 257 l 1,23,-1
 177 424 l 1,20,-1
EndSplineSet
EndChar

StartChar: t
Encoding: 116 116 87
Width: 500
Flags: W
LayerCount: 2
Fore
SplineSet
479 45 m 1,0,-1
 479 0 l 1,1,-1
 119 0 l 1,2,-1
 119 424 l 1,3,-1
 20 424 l 1,4,-1
 20 469 l 1,5,-1
 119 469 l 1,6,-1
 119 695 l 1,7,-1
 286 695 l 1,8,-1
 286 469 l 1,9,-1
 479 469 l 1,10,-1
 479 424 l 1,11,-1
 286 424 l 1,12,-1
 286 45 l 1,13,-1
 479 45 l 1,0,-1
241 650 m 1,14,-1
 164 650 l 1,15,-1
 164 45 l 1,16,-1
 241 45 l 1,17,-1
 241 650 l 1,14,-1
EndSplineSet
EndChar

StartChar: u
Encoding: 117 117 88
Width: 866
Flags: W
LayerCount: 2
Fore
SplineSet
850 45 m 1,0,-1
 850 0 l 1,1,-1
 119 0 l 1,2,-1
 119 424 l 1,3,-1
 20 424 l 1,4,-1
 20 469 l 1,5,-1
 286 469 l 1,6,-1
 286 45 l 1,7,-1
 698 45 l 1,8,-1
 698 424 l 1,9,-1
 591 424 l 1,10,-1
 591 469 l 1,11,-1
 743 469 l 1,12,-1
 743 45 l 1,13,-1
 850 45 l 1,0,-1
241 424 m 1,14,-1
 164 424 l 1,15,-1
 164 45 l 1,16,-1
 241 45 l 1,17,-1
 241 424 l 1,14,-1
EndSplineSet
EndChar

StartChar: v
Encoding: 118 118 89
Width: 894
Flags: W
LayerCount: 2
Fore
SplineSet
643 469 m 1,0,-1
 887 469 l 1,1,-1
 887 424 l 1,2,-1
 779 424 l 1,3,-1
 622 0 l 1,4,-1
 35 0 l 1,5,-1
 35 45 l 1,6,-1
 134 45 l 1,7,-1
 134 424 l 1,8,-1
 35 424 l 1,9,-1
 35 469 l 1,10,-1
 400 469 l 1,11,-1
 400 424 l 1,12,-1
 301 424 l 1,13,-1
 301 45 l 1,14,-1
 589 45 l 1,15,-1
 729 424 l 1,16,-1
 643 424 l 1,17,-1
 643 469 l 1,0,-1
256 424 m 1,18,-1
 179 424 l 1,19,-1
 179 45 l 1,20,-1
 256 45 l 1,21,-1
 256 424 l 1,18,-1
EndSplineSet
EndChar

StartChar: w
Encoding: 119 119 90
Width: 1242
Flags: W
LayerCount: 2
Fore
SplineSet
1108 424 m 1,0,-1
 1108 45 l 1,1,-1
 1207 45 l 1,2,-1
 1207 0 l 1,3,-1
 35 0 l 1,4,-1
 35 45 l 1,5,-1
 134 45 l 1,6,-1
 134 424 l 1,7,-1
 35 424 l 1,8,-1
 35 469 l 1,9,-1
 401 469 l 1,10,-1
 401 424 l 1,11,-1
 301 424 l 1,12,-1
 301 45 l 1,13,-1
 599 45 l 1,14,-1
 599 424 l 1,15,-1
 500 424 l 1,16,-1
 500 469 l 1,17,-1
 743 469 l 1,18,-1
 743 424 l 1,19,-1
 644 424 l 1,20,-1
 644 45 l 1,21,-1
 941 45 l 1,22,-1
 941 424 l 1,23,-1
 842 424 l 1,24,-1
 842 469 l 1,25,-1
 1207 469 l 1,26,-1
 1207 424 l 1,27,-1
 1108 424 l 1,0,-1
256 424 m 1,28,-1
 180 424 l 1,29,-1
 180 45 l 1,30,-1
 256 45 l 1,31,-1
 256 424 l 1,28,-1
1063 424 m 1,32,-1
 986 424 l 1,33,-1
 986 45 l 1,34,-1
 1063 45 l 1,35,-1
 1063 424 l 1,32,-1
EndSplineSet
EndChar

StartChar: x
Encoding: 120 120 91
Width: 829
Flags: W
LayerCount: 2
Fore
SplineSet
803 45 m 1,0,-1
 803 0 l 1,1,-1
 398 0 l 1,2,-1
 398 45 l 1,3,-1
 488 45 l 1,4,-1
 333 215 l 1,5,-1
 168 45 l 1,6,-1
 269 45 l 1,7,-1
 269 0 l 1,8,-1
 25 0 l 1,9,-1
 25 45 l 1,10,-1
 106 45 l 1,11,-1
 303 248 l 1,12,-1
 142 424 l 1,13,-1
 40 424 l 1,14,-1
 40 469 l 1,15,-1
 446 469 l 1,16,-1
 446 424 l 1,17,-1
 355 424 l 1,18,-1
 501 265 l 1,19,-1
 655 424 l 1,20,-1
 546 424 l 1,21,-1
 546 469 l 1,22,-1
 791 469 l 1,23,-1
 791 424 l 1,24,-1
 718 424 l 1,25,-1
 531 232 l 1,26,-1
 702 45 l 1,27,-1
 803 45 l 1,0,-1
549 45 m 1,28,-1
 641 45 l 1,29,-1
 294 424 l 1,30,-1
 203 424 l 1,31,-1
 549 45 l 1,28,-1
EndSplineSet
EndChar

StartChar: y
Encoding: 121 121 92
Width: 880
Flags: W
LayerCount: 2
Fore
SplineSet
860 424 m 1,0,-1
 761 424 l 1,1,-1
 761 -226 l 1,2,-1
 123 -226 l 1,3,-1
 123 -104 l 1,4,-1
 168 -104 l 1,5,-1
 168 -181 l 1,6,-1
 594 -181 l 1,7,-1
 594 0 l 1,8,-1
 123 0 l 1,9,-1
 123 424 l 1,10,-1
 16 424 l 1,11,-1
 16 469 l 1,12,-1
 275 469 l 1,13,-1
 275 424 l 1,14,-1
 168 424 l 1,15,-1
 168 45 l 1,16,-1
 594 45 l 1,17,-1
 594 424 l 1,18,-1
 495 424 l 1,19,-1
 495 469 l 1,20,-1
 860 469 l 1,21,-1
 860 424 l 1,0,-1
716 424 m 1,22,-1
 639 424 l 1,23,-1
 639 -181 l 1,24,-1
 716 -181 l 1,25,-1
 716 424 l 1,22,-1
EndSplineSet
EndChar

StartChar: z
Encoding: 122 122 93
Width: 701
Flags: W
LayerCount: 2
Fore
SplineSet
614 122 m 1,0,-1
 659 122 l 1,1,-1
 659 0 l 1,2,-1
 28 0 l 1,3,-1
 408 424 l 1,4,-1
 89 424 l 1,5,-1
 89 347 l 1,6,-1
 44 347 l 1,7,-1
 44 469 l 1,8,-1
 673 469 l 1,9,-1
 294 45 l 1,10,-1
 614 45 l 1,11,-1
 614 122 l 1,0,-1
233 45 m 1,12,-1
 570 424 l 1,13,-1
 467 424 l 1,14,-1
 130 45 l 1,15,-1
 233 45 l 1,12,-1
EndSplineSet
EndChar

StartChar: braceleft
Encoding: 123 123 94
Width: 465
Flags: W
LayerCount: 2
Fore
SplineSet
264 631 m 1,0,-1
 264 38 l 1,1,-1
 370 -47 l 1,2,-1
 444 -47 l 1,3,-1
 444 -92 l 1,4,-1
 353 -92 l 1,5,-1
 97 115 l 1,6,-1
 97 312 l 1,7,-1
 20 312 l 1,8,-1
 20 357 l 1,9,-1
 97 357 l 1,10,-1
 97 554 l 1,11,-1
 353 761 l 1,12,-1
 444 761 l 1,13,-1
 444 716 l 1,14,-1
 369 716 l 1,15,-1
 264 631 l 1,0,-1
142 532 m 1,16,-1
 142 137 l 1,17,-1
 219 75 l 1,18,-1
 219 594 l 1,19,-1
 142 532 l 1,16,-1
EndSplineSet
EndChar

StartChar: bar
Encoding: 124 124 95
Width: 311
Flags: W
LayerCount: 2
Fore
SplineSet
239 -185 m 1,0,-1
 72 -185 l 1,1,-1
 72 750 l 1,2,-1
 239 750 l 1,3,-1
 239 -185 l 1,0,-1
193 705 m 1,4,-1
 117 705 l 1,5,-1
 117 -140 l 1,6,-1
 193 -140 l 1,7,-1
 193 705 l 1,4,-1
EndSplineSet
EndChar

StartChar: braceright
Encoding: 125 125 96
Width: 465
Flags: W
LayerCount: 2
Fore
SplineSet
96 716 m 1,0,-1
 21 716 l 1,1,-1
 21 761 l 1,2,-1
 112 761 l 1,3,-1
 368 554 l 1,4,-1
 368 357 l 1,5,-1
 445 357 l 1,6,-1
 445 312 l 1,7,-1
 368 312 l 1,8,-1
 368 115 l 1,9,-1
 112 -92 l 1,10,-1
 21 -92 l 1,11,-1
 21 -47 l 1,12,-1
 95 -47 l 1,13,-1
 201 38 l 1,14,-1
 201 631 l 1,15,-1
 96 716 l 1,0,-1
246 594 m 1,16,-1
 246 75 l 1,17,-1
 323 137 l 1,18,-1
 323 532 l 1,19,-1
 246 594 l 1,16,-1
EndSplineSet
EndChar

StartChar: asciitilde
Encoding: 126 126 97
Width: 784
Flags: W
LayerCount: 2
Fore
SplineSet
603 289 m 1,0,-1
 469 289 l 1,1,-1
 318 392 l 1,2,-1
 220 289 l 1,3,-1
 53 289 l 1,4,-1
 177 453 l 1,5,-1
 317 453 l 1,6,-1
 476 343 l 1,7,-1
 560 453 l 1,8,-1
 759 453 l 1,9,-1
 603 289 l 1,0,-1
653 408 m 1,10,-1
 582 408 l 1,11,-1
 526 334 l 1,12,-1
 580 334 l 1,13,-1
 653 408 l 1,10,-1
270 408 m 1,14,-1
 199 408 l 1,15,-1
 143 334 l 1,16,-1
 197 334 l 1,17,-1
 270 408 l 1,14,-1
EndSplineSet
EndChar

StartChar: cent
Encoding: 162 162 99
Width: 672
Flags: W
LayerCount: 2
Fore
SplineSet
569 566 m 1,0,-1
 569 650 l 1,1,-1
 318 650 l 1,2,-1
 318 294 l 1,3,-1
 569 294 l 1,4,-1
 569 378 l 1,5,-1
 614 378 l 1,6,-1
 614 249 l 1,7,-1
 420 249 l 1,8,-1
 420 148 l 1,9,-1
 375 148 l 1,10,-1
 375 249 l 1,11,-1
 52 249 l 1,12,-1
 52 294 l 1,13,-1
 151 294 l 1,14,-1
 151 650 l 1,15,-1
 52 650 l 1,16,-1
 52 695 l 1,17,-1
 375 695 l 1,18,-1
 375 796 l 1,19,-1
 420 796 l 1,20,-1
 420 695 l 1,21,-1
 614 695 l 1,22,-1
 614 566 l 1,23,-1
 569 566 l 1,0,-1
273 650 m 1,24,-1
 197 650 l 1,25,-1
 197 294 l 1,26,-1
 273 294 l 1,27,-1
 273 650 l 1,24,-1
EndSplineSet
EndChar

StartChar: sterling
Encoding: 163 163 100
Width: 849
Flags: W
LayerCount: 2
Fore
SplineSet
803 695 m 1,0,-1
 803 510 l 1,1,-1
 758 510 l 1,2,-1
 758 650 l 1,3,-1
 317 650 l 1,4,-1
 317 296 l 1,5,-1
 507 296 l 1,6,-1
 507 251 l 1,7,-1
 317 251 l 1,8,-1
 317 45 l 1,9,-1
 726 45 l 1,10,-1
 726 0 l 1,11,-1
 50 0 l 1,12,-1
 50 45 l 1,13,-1
 150 45 l 1,14,-1
 150 251 l 1,15,-1
 50 251 l 1,16,-1
 50 296 l 1,17,-1
 150 296 l 1,18,-1
 150 695 l 1,19,-1
 803 695 l 1,0,-1
271 650 m 1,20,-1
 195 650 l 1,21,-1
 195 45 l 1,22,-1
 271 45 l 1,23,-1
 271 650 l 1,20,-1
EndSplineSet
EndChar

StartChar: currency
Encoding: 164 164 101
Width: 670
Flags: W
LayerCount: 2
Fore
SplineSet
505 403 m 1,0,-1
 505 256 l 1,1,-1
 613 148 l 1,2,-1
 581 116 l 1,3,-1
 460 237 l 1,4,-1
 460 421 l 1,5,-1
 581 542 l 1,6,-1
 613 510 l 1,7,-1
 505 403 l 1,0,-1
210 238 m 1,8,-1
 89 116 l 1,9,-1
 57 148 l 1,10,-1
 165 257 l 1,11,-1
 165 402 l 1,12,-1
 57 510 l 1,13,-1
 89 542 l 1,14,-1
 210 421 l 1,15,-1
 210 238 l 1,8,-1
244 454 m 1,16,-1
 122 575 l 1,17,-1
 154 607 l 1,18,-1
 262 499 l 1,19,-1
 408 499 l 1,20,-1
 516 607 l 1,21,-1
 548 575 l 1,22,-1
 426 454 l 1,23,-1
 244 454 l 1,16,-1
427 204 m 1,24,-1
 548 83 l 1,25,-1
 516 51 l 1,26,-1
 408 159 l 1,27,-1
 262 159 l 1,28,-1
 154 51 l 1,29,-1
 122 83 l 1,30,-1
 243 204 l 1,31,-1
 427 204 l 1,24,-1
EndSplineSet
EndChar

StartChar: yen
Encoding: 165 165 102
Width: 1002
Flags: W
LayerCount: 2
Fore
SplineSet
968 695 m 1,0,-1
 968 650 l 1,1,-1
 857 650 l 1,2,-1
 655 419 l 1,3,-1
 777 419 l 1,4,-1
 777 374 l 1,5,-1
 616 374 l 1,6,-1
 585 339 l 1,7,-1
 585 285 l 1,8,-1
 777 285 l 1,9,-1
 777 240 l 1,10,-1
 585 240 l 1,11,-1
 585 45 l 1,12,-1
 684 45 l 1,13,-1
 684 0 l 1,14,-1
 319 0 l 1,15,-1
 319 45 l 1,16,-1
 418 45 l 1,17,-1
 418 240 l 1,18,-1
 226 240 l 1,19,-1
 226 285 l 1,20,-1
 418 285 l 1,21,-1
 418 339 l 1,22,-1
 388 374 l 1,23,-1
 226 374 l 1,24,-1
 226 419 l 1,25,-1
 348 419 l 1,26,-1
 146 650 l 1,27,-1
 34 650 l 1,28,-1
 34 695 l 1,29,-1
 278 695 l 1,30,-1
 278 650 l 1,31,-1
 206 650 l 1,32,-1
 451 370 l 1,33,-1
 552 370 l 1,34,-1
 797 650 l 1,35,-1
 725 650 l 1,36,-1
 725 695 l 1,37,-1
 968 695 l 1,0,-1
540 325 m 1,38,-1
 463 325 l 1,39,-1
 463 45 l 1,40,-1
 540 45 l 1,41,-1
 540 325 l 1,38,-1
EndSplineSet
EndChar

StartChar: brokenbar
Encoding: 166 166 103
Width: 189
Flags: W
LayerCount: 2
Fore
SplineSet
117 834 m 1,0,-1
 117 459 l 1,1,-1
 72 459 l 1,2,-1
 72 834 l 1,3,-1
 117 834 l 1,0,-1
117 327 m 1,4,-1
 117 -48 l 1,5,-1
 72 -48 l 1,6,-1
 72 327 l 1,7,-1
 117 327 l 1,4,-1
EndSplineSet
EndChar

StartChar: section
Encoding: 167 167 104
Width: 764
Flags: W
LayerCount: 2
Fore
SplineSet
656 552 m 1,0,-1
 656 650 l 1,1,-1
 230 650 l 1,2,-1
 230 454 l 1,3,-1
 701 454 l 1,4,-1
 701 168 l 1,5,-1
 534 168 l 1,6,-1
 534 409 l 1,7,-1
 63 409 l 1,8,-1
 63 695 l 1,9,-1
 701 695 l 1,10,-1
 701 552 l 1,11,-1
 656 552 l 1,0,-1
579 213 m 1,12,-1
 656 213 l 1,13,-1
 656 409 l 1,14,-1
 579 409 l 1,15,-1
 579 213 l 1,12,-1
184 650 m 1,16,-1
 108 650 l 1,17,-1
 108 454 l 1,18,-1
 184 454 l 1,19,-1
 184 650 l 1,16,-1
108 -20 m 1,20,-1
 108 -118 l 1,21,-1
 534 -118 l 1,22,-1
 534 78 l 1,23,-1
 63 78 l 1,24,-1
 63 364 l 1,25,-1
 230 364 l 1,26,-1
 230 123 l 1,27,-1
 701 123 l 1,28,-1
 701 -163 l 1,29,-1
 63 -163 l 1,30,-1
 63 -20 l 1,31,-1
 108 -20 l 1,20,-1
185 319 m 1,32,-1
 108 319 l 1,33,-1
 108 123 l 1,34,-1
 185 123 l 1,35,-1
 185 319 l 1,32,-1
580 -118 m 1,36,-1
 656 -118 l 1,37,-1
 656 78 l 1,38,-1
 580 78 l 1,39,-1
 580 -118 l 1,36,-1
EndSplineSet
EndChar

StartChar: dieresis
Encoding: 168 168 105
Width: 582
Flags: W
LayerCount: 2
Fore
SplineSet
260 546 m 1,0,-1
 95 546 l 1,1,-1
 95 688 l 1,2,-1
 260 688 l 1,3,-1
 260 546 l 1,0,-1
215 643 m 1,4,-1
 140 643 l 1,5,-1
 140 591 l 1,6,-1
 215 591 l 1,7,-1
 215 643 l 1,4,-1
491 546 m 1,8,-1
 326 546 l 1,9,-1
 326 688 l 1,10,-1
 491 688 l 1,11,-1
 491 546 l 1,8,-1
446 643 m 1,12,-1
 371 643 l 1,13,-1
 371 591 l 1,14,-1
 446 591 l 1,15,-1
 446 643 l 1,12,-1
EndSplineSet
EndChar

StartChar: copyright
Encoding: 169 169 106
Width: 824
Flags: W
LayerCount: 2
Fore
SplineSet
755 30 m 1,0,-1
 69 30 l 1,1,-1
 69 663 l 1,2,-1
 755 663 l 1,3,-1
 755 30 l 1,0,-1
114 75 m 1,4,-1
 710 75 l 1,5,-1
 710 618 l 1,6,-1
 114 618 l 1,7,-1
 114 75 l 1,4,-1
652 442 m 1,8,-1
 652 560 l 1,9,-1
 172 560 l 1,10,-1
 172 133 l 1,11,-1
 652 133 l 1,12,-1
 652 250 l 1,13,-1
 607 250 l 1,14,-1
 607 178 l 1,15,-1
 339 178 l 1,16,-1
 339 515 l 1,17,-1
 607 515 l 1,18,-1
 607 442 l 1,19,-1
 652 442 l 1,8,-1
294 178 m 1,20,-1
 218 178 l 1,21,-1
 218 515 l 1,22,-1
 294 515 l 1,23,-1
 294 178 l 1,20,-1
EndSplineSet
EndChar

StartChar: ordfeminine
Encoding: 170 170 107
Width: 486
Flags: W
LayerCount: 2
Fore
SplineSet
429 461 m 1,0,-1
 429 416 l 1,1,-1
 316 416 l 1,2,-1
 316 461 l 1,3,-1
 350 461 l 1,4,-1
 350 515 l 1,5,-1
 212 515 l 1,6,-1
 212 461 l 1,7,-1
 239 461 l 1,8,-1
 239 416 l 1,9,-1
 66 416 l 1,10,-1
 66 461 l 1,11,-1
 95 461 l 1,12,-1
 95 616 l 1,13,-1
 66 616 l 1,14,-1
 66 661 l 1,15,-1
 396 661 l 1,16,-1
 396 461 l 1,17,-1
 429 461 l 1,0,-1
167 461 m 1,18,-1
 167 616 l 1,19,-1
 140 616 l 1,20,-1
 140 461 l 1,21,-1
 167 461 l 1,18,-1
350 561 m 1,22,-1
 350 616 l 1,23,-1
 212 616 l 1,24,-1
 212 561 l 1,25,-1
 350 561 l 1,22,-1
EndSplineSet
EndChar

StartChar: guillemotleft
Encoding: 171 171 108
Width: 759
Flags: W
LayerCount: 2
Fore
SplineSet
691 519 m 1,0,-1
 691 469 l 1,1,-1
 515 379 l 1,2,-1
 691 290 l 1,3,-1
 691 104 l 1,4,-1
 280 311 l 1,5,-1
 691 519 l 1,0,-1
465 354 m 1,6,-1
 381 312 l 1,7,-1
 646 178 l 1,8,-1
 646 263 l 1,9,-1
 465 354 l 1,6,-1
446 468 m 1,10,-1
 136 311 l 1,11,-1
 446 154 l 1,12,-1
 446 103 l 1,13,-1
 35 310 l 1,14,-1
 446 518 l 1,15,-1
 446 468 l 1,10,-1
EndSplineSet
EndChar

StartChar: logicalnot
Encoding: 172 172 109
Width: 596
Flags: W
LayerCount: 2
Fore
SplineSet
54 497 m 1,0,-1
 533 497 l 1,1,-1
 533 252 l 1,2,-1
 488 252 l 1,3,-1
 488 344 l 1,4,-1
 54 344 l 1,5,-1
 54 497 l 1,0,-1
99 452 m 1,6,-1
 99 389 l 1,7,-1
 488 389 l 1,8,-1
 488 452 l 1,9,-1
 99 452 l 1,6,-1
EndSplineSet
EndChar

StartChar: registered
Encoding: 174 174 110
Width: 824
Flags: W
LayerCount: 2
Fore
SplineSet
755 663 m 1,0,-1
 755 30 l 1,1,-1
 69 30 l 1,2,-1
 69 663 l 1,3,-1
 755 663 l 1,0,-1
710 618 m 1,4,-1
 114 618 l 1,5,-1
 114 75 l 1,6,-1
 710 75 l 1,7,-1
 710 618 l 1,4,-1
612 338 m 1,8,9
 652 307 652 307 652 256 c 2,10,-1
 652 133 l 1,11,-1
 606 133 l 1,12,-1
 606 256 l 2,13,14
 606 281 606 281 589 298 c 128,-1,15
 572 315 572 315 548 315 c 2,16,-1
 339 315 l 1,17,-1
 339 133 l 1,18,-1
 172 133 l 1,19,-1
 172 560 l 1,20,-1
 652 560 l 1,21,-1
 652 420 l 2,22,23
 652 369 652 369 612 338 c 1,8,9
339 515 m 1,24,-1
 339 361 l 1,25,-1
 548 361 l 2,26,27
 572 361 572 361 589 378 c 128,-1,28
 606 395 606 395 606 420 c 2,29,-1
 606 515 l 1,30,-1
 339 515 l 1,24,-1
294 515 m 1,31,-1
 218 515 l 1,32,-1
 218 178 l 1,33,-1
 294 178 l 1,34,-1
 294 515 l 1,31,-1
EndSplineSet
EndChar

StartChar: degree
Encoding: 176 176 111
Width: 343
Flags: W
LayerCount: 2
Fore
SplineSet
278 459 m 1,0,-1
 65 459 l 1,1,-1
 65 664 l 1,2,-1
 278 664 l 1,3,-1
 278 459 l 1,0,-1
233 619 m 1,4,-1
 110 619 l 1,5,-1
 110 504 l 1,6,-1
 233 504 l 1,7,-1
 233 619 l 1,4,-1
EndSplineSet
EndChar

StartChar: plusminus
Encoding: 177 177 112
Width: 581
Flags: W
LayerCount: 2
Fore
SplineSet
524 509 m 1,0,-1
 524 356 l 1,1,-1
 313 356 l 1,2,-1
 313 199 l 1,3,-1
 268 199 l 1,4,-1
 268 356 l 1,5,-1
 57 356 l 1,6,-1
 57 509 l 1,7,-1
 268 509 l 1,8,-1
 268 666 l 1,9,-1
 313 666 l 1,10,-1
 313 509 l 1,11,-1
 524 509 l 1,0,-1
479 464 m 1,12,-1
 102 464 l 1,13,-1
 102 401 l 1,14,-1
 479 401 l 1,15,-1
 479 464 l 1,12,-1
524 0 m 1,16,-1
 57 0 l 1,17,-1
 57 153 l 1,18,-1
 524 153 l 1,19,-1
 524 0 l 1,16,-1
479 108 m 1,20,-1
 102 108 l 1,21,-1
 102 45 l 1,22,-1
 479 45 l 1,23,-1
 479 108 l 1,20,-1
EndSplineSet
EndChar

StartChar: twosuperior
Encoding: 178 178 113
Width: 561
Flags: W
LayerCount: 2
Fore
SplineSet
195 485 m 1,0,-1
 195 365 l 1,1,-1
 450 365 l 1,2,-1
 450 425 l 1,3,-1
 495 425 l 1,4,-1
 495 320 l 1,5,-1
 65 320 l 1,6,-1
 65 530 l 1,7,-1
 364 530 l 1,8,-1
 364 650 l 1,9,-1
 110 650 l 1,10,-1
 110 590 l 1,11,-1
 65 590 l 1,12,-1
 65 695 l 1,13,-1
 495 695 l 1,14,-1
 495 485 l 1,15,-1
 195 485 l 1,0,-1
409 530 m 1,16,-1
 450 530 l 1,17,-1
 450 650 l 1,18,-1
 409 650 l 1,19,-1
 409 530 l 1,16,-1
150 485 m 1,20,-1
 110 485 l 1,21,-1
 110 365 l 1,22,-1
 150 365 l 1,23,-1
 150 485 l 1,20,-1
EndSplineSet
EndChar

StartChar: threesuperior
Encoding: 179 179 114
Width: 561
Flags: W
LayerCount: 2
Fore
SplineSet
495 695 m 1,0,-1
 495 320 l 1,1,-1
 65 320 l 1,2,-1
 65 425 l 1,3,-1
 110 425 l 1,4,-1
 110 365 l 1,5,-1
 364 365 l 1,6,-1
 364 485 l 1,7,-1
 179 485 l 1,8,-1
 179 530 l 1,9,-1
 364 530 l 1,10,-1
 364 650 l 1,11,-1
 110 650 l 1,12,-1
 110 590 l 1,13,-1
 65 590 l 1,14,-1
 65 695 l 1,15,-1
 495 695 l 1,0,-1
450 650 m 1,16,-1
 409 650 l 1,17,-1
 409 365 l 1,18,-1
 450 365 l 1,19,-1
 450 650 l 1,16,-1
EndSplineSet
EndChar

StartChar: acute
Encoding: 180 180 115
Width: 451
Flags: W
LayerCount: 2
Fore
SplineSet
389 710 m 1,0,-1
 233 546 l 1,1,-1
 66 546 l 1,2,-1
 190 710 l 1,3,-1
 389 710 l 1,0,-1
283 665 m 1,4,-1
 212 665 l 1,5,-1
 156 591 l 1,6,-1
 210 591 l 1,7,-1
 283 665 l 1,4,-1
EndSplineSet
EndChar

StartChar: mu
Encoding: 181 181 116
Width: 937
Flags: W
LayerCount: 2
Fore
SplineSet
732 695 m 1,0,-1
 976 695 l 1,1,-1
 976 650 l 1,2,-1
 877 650 l 1,3,-1
 877 0 l 1,4,-1
 227 0 l 1,5,-1
 227 -125 l 1,6,-1
 326 -125 l 1,7,-1
 326 -170 l 1,8,-1
 -39 -170 l 1,9,-1
 -39 -125 l 1,10,-1
 60 -125 l 1,11,-1
 60 650 l 1,12,-1
 -39 650 l 1,13,-1
 -39 695 l 1,14,-1
 326 695 l 1,15,-1
 326 650 l 1,16,-1
 227 650 l 1,17,-1
 227 45 l 1,18,-1
 832 45 l 1,19,-1
 832 650 l 1,20,-1
 732 650 l 1,21,-1
 732 695 l 1,0,-1
182 -125 m 1,22,-1
 182 650 l 1,23,-1
 105 650 l 1,24,-1
 105 -125 l 1,25,-1
 182 -125 l 1,22,-1
EndSplineSet
EndChar

StartChar: paragraph
Encoding: 182 182 117
Width: 730
Flags: W
LayerCount: 2
Fore
SplineSet
589 650 m 1,0,-1
 589 -122 l 1,1,-1
 543 -122 l 1,2,-1
 543 650 l 1,3,-1
 467 650 l 1,4,-1
 467 -122 l 1,5,-1
 422 -122 l 1,6,-1
 422 325 l 1,7,-1
 50 325 l 1,8,-1
 50 695 l 1,9,-1
 688 695 l 1,10,-1
 688 650 l 1,11,-1
 589 650 l 1,0,-1
EndSplineSet
EndChar

StartChar: periodcentered
Encoding: 183 183 118
Width: 310
Flags: W
LayerCount: 2
Fore
SplineSet
251 273 m 1,0,-1
 59 273 l 1,1,-1
 59 426 l 1,2,-1
 251 426 l 1,3,-1
 251 273 l 1,0,-1
206 381 m 1,4,-1
 104 381 l 1,5,-1
 104 318 l 1,6,-1
 206 318 l 1,7,-1
 206 381 l 1,4,-1
EndSplineSet
EndChar

StartChar: cedilla
Encoding: 184 184 119
Width: 541
Flags: W
LayerCount: 2
Fore
SplineSet
403 45 m 1,0,-1
 284 -183 l 1,1,-1
 96 -183 l 1,2,-1
 215 45 l 1,3,-1
 403 45 l 1,0,-1
256 -138 m 1,4,-1
 328 0 l 1,5,-1
 243 0 l 1,6,-1
 170 -138 l 1,7,-1
 256 -138 l 1,4,-1
EndSplineSet
EndChar

StartChar: onesuperior
Encoding: 185 185 120
Width: 437
Flags: W
LayerCount: 2
Fore
SplineSet
394 365 m 1,0,-1
 394 320 l 1,1,-1
 62 320 l 1,2,-1
 62 365 l 1,3,-1
 174 365 l 1,4,-1
 174 650 l 1,5,-1
 62 650 l 1,6,-1
 62 695 l 1,7,-1
 305 695 l 1,8,-1
 305 365 l 1,9,-1
 394 365 l 1,0,-1
260 365 m 1,10,-1
 260 650 l 1,11,-1
 219 650 l 1,12,-1
 219 365 l 1,13,-1
 260 365 l 1,10,-1
EndSplineSet
EndChar

StartChar: ordmasculine
Encoding: 186 186 121
Width: 431
Flags: W
LayerCount: 2
Fore
SplineSet
366 661 m 1,0,-1
 366 416 l 1,1,-1
 65 416 l 1,2,-1
 65 661 l 1,3,-1
 366 661 l 1,0,-1
137 616 m 1,4,-1
 110 616 l 1,5,-1
 110 461 l 1,6,-1
 137 461 l 1,7,-1
 137 616 l 1,4,-1
320 616 m 1,8,-1
 182 616 l 1,9,-1
 182 461 l 1,10,-1
 320 461 l 1,11,-1
 320 616 l 1,8,-1
EndSplineSet
EndChar

StartChar: guillemotright
Encoding: 187 187 122
Width: 764
Flags: W
LayerCount: 2
Fore
SplineSet
69 103 m 1,0,-1
 69 153 l 1,1,-1
 245 243 l 1,2,-1
 69 332 l 1,3,-1
 69 518 l 1,4,-1
 480 311 l 1,5,-1
 69 103 l 1,0,-1
295 268 m 1,6,-1
 379 310 l 1,7,-1
 114 444 l 1,8,-1
 114 359 l 1,9,-1
 295 268 l 1,6,-1
314 104 m 1,10,-1
 314 154 l 1,11,-1
 624 311 l 1,12,-1
 314 468 l 1,13,-1
 314 519 l 1,14,-1
 725 312 l 1,15,-1
 314 104 l 1,10,-1
EndSplineSet
EndChar

StartChar: onequarter
Encoding: 188 188 123
Width: 1265
Flags: W
LayerCount: 2
Fore
SplineSet
1083 375 m 1,0,-1
 1214 375 l 1,1,-1
 1214 0 l 1,2,-1
 1083 0 l 1,3,-1
 1083 165 l 1,4,-1
 784 165 l 1,5,-1
 784 375 l 1,6,-1
 829 375 l 1,7,-1
 829 210 l 1,8,-1
 1083 210 l 1,9,-1
 1083 375 l 1,0,-1
1169 45 m 1,10,-1
 1169 330 l 1,11,-1
 1128 330 l 1,12,-1
 1128 45 l 1,13,-1
 1169 45 l 1,10,-1
379 365 m 1,14,-1
 379 320 l 1,15,-1
 47 320 l 1,16,-1
 47 365 l 1,17,-1
 159 365 l 1,18,-1
 159 650 l 1,19,-1
 47 650 l 1,20,-1
 47 695 l 1,21,-1
 290 695 l 1,22,-1
 290 365 l 1,23,-1
 379 365 l 1,14,-1
245 365 m 1,24,-1
 245 650 l 1,25,-1
 204 650 l 1,26,-1
 204 365 l 1,27,-1
 245 365 l 1,24,-1
963 738 m 1,28,-1
 363 -44 l 1,29,-1
 193 -44 l 1,30,-1
 793 738 l 1,31,-1
 963 738 l 1,28,-1
871 693 m 1,32,-1
 815 693 l 1,33,-1
 284 1 l 1,34,-1
 340 1 l 1,35,-1
 871 693 l 1,32,-1
EndSplineSet
EndChar

StartChar: threequarters
Encoding: 190 190 125
Width: 1382
Flags: W
LayerCount: 2
Fore
SplineSet
1333 375 m 1,0,-1
 1333 0 l 1,1,-1
 1202 0 l 1,2,-1
 1202 165 l 1,3,-1
 903 165 l 1,4,-1
 903 375 l 1,5,-1
 948 375 l 1,6,-1
 948 210 l 1,7,-1
 1202 210 l 1,8,-1
 1202 375 l 1,9,-1
 1333 375 l 1,0,-1
1288 330 m 1,10,-1
 1247 330 l 1,11,-1
 1247 45 l 1,12,-1
 1288 45 l 1,13,-1
 1288 330 l 1,10,-1
1088 738 m 1,14,-1
 488 -44 l 1,15,-1
 318 -44 l 1,16,-1
 918 738 l 1,17,-1
 1088 738 l 1,14,-1
996 693 m 1,18,-1
 940 693 l 1,19,-1
 409 1 l 1,20,-1
 465 1 l 1,21,-1
 996 693 l 1,18,-1
479 695 m 1,22,-1
 479 320 l 1,23,-1
 49 320 l 1,24,-1
 49 425 l 1,25,-1
 94 425 l 1,26,-1
 94 365 l 1,27,-1
 348 365 l 1,28,-1
 348 485 l 1,29,-1
 163 485 l 1,30,-1
 163 530 l 1,31,-1
 348 530 l 1,32,-1
 348 650 l 1,33,-1
 94 650 l 1,34,-1
 94 590 l 1,35,-1
 49 590 l 1,36,-1
 49 695 l 1,37,-1
 479 695 l 1,22,-1
434 650 m 1,38,-1
 393 650 l 1,39,-1
 393 365 l 1,40,-1
 434 365 l 1,41,-1
 434 650 l 1,38,-1
EndSplineSet
EndChar

StartChar: AE
Encoding: 198 198 133
Width: 1701
Flags: W
LayerCount: 2
Fore
SplineSet
1607 510 m 1,0,-1
 1607 650 l 1,1,-1
 1002 650 l 1,2,-1
 1002 370 l 1,3,-1
 1444 370 l 1,4,-1
 1444 469 l 1,5,-1
 1490 469 l 1,6,-1
 1490 226 l 1,7,-1
 1444 226 l 1,8,-1
 1444 325 l 1,9,-1
 1002 325 l 1,10,-1
 1002 45 l 1,11,-1
 1607 45 l 1,12,-1
 1607 185 l 1,13,-1
 1652 185 l 1,14,-1
 1652 0 l 1,15,-1
 736 0 l 1,16,-1
 736 45 l 1,17,-1
 835 45 l 1,18,-1
 835 325 l 1,19,-1
 258 325 l 1,20,-1
 153 45 l 1,21,-1
 239 45 l 1,22,-1
 239 0 l 1,23,-1
 -5 0 l 1,24,-1
 -5 45 l 1,25,-1
 103 45 l 1,26,-1
 347 695 l 1,27,-1
 1652 695 l 1,28,-1
 1652 510 l 1,29,-1
 1607 510 l 1,0,-1
835 370 m 1,30,-1
 835 650 l 1,31,-1
 380 650 l 1,32,-1
 275 370 l 1,33,-1
 835 370 l 1,30,-1
957 650 m 1,34,-1
 880 650 l 1,35,-1
 880 45 l 1,36,-1
 957 45 l 1,37,-1
 957 650 l 1,34,-1
EndSplineSet
EndChar

StartChar: Ccedilla
Encoding: 199 199 134
Width: 951
Flags: W
LayerCount: 2
Fore
SplineSet
855 510 m 1,0,-1
 855 650 l 1,1,-1
 298 650 l 1,2,-1
 298 45 l 1,3,-1
 855 45 l 1,4,-1
 855 185 l 1,5,-1
 900 185 l 1,6,-1
 900 0 l 1,7,-1
 640 0 l 1,8,-1
 545 -183 l 1,9,-1
 357 -183 l 1,10,-1
 452 0 l 1,11,-1
 32 0 l 1,12,-1
 32 45 l 1,13,-1
 131 45 l 1,14,-1
 131 650 l 1,15,-1
 32 650 l 1,16,-1
 32 695 l 1,17,-1
 900 695 l 1,18,-1
 900 510 l 1,19,-1
 855 510 l 1,0,-1
253 650 m 1,20,-1
 177 650 l 1,21,-1
 177 45 l 1,22,-1
 253 45 l 1,23,-1
 253 650 l 1,20,-1
517 -138 m 1,24,-1
 589 0 l 1,25,-1
 504 0 l 1,26,-1
 431 -138 l 1,27,-1
 517 -138 l 1,24,-1
EndSplineSet
EndChar

StartChar: Eth
Encoding: 208 208 143
Width: 1009
Flags: W
LayerCount: 2
Fore
SplineSet
805 695 m 2,0,1
 864 695 864 695 906.5 652.5 c 128,-1,2
 949 610 949 610 949 550 c 2,3,-1
 949 144 l 2,4,5
 949 85 949 85 906.5 42.5 c 128,-1,6
 864 0 864 0 805 0 c 2,7,-1
 33 0 l 1,8,-1
 33 45 l 1,9,-1
 132 45 l 1,10,-1
 132 325 l 1,11,-1
 33 325 l 1,12,-1
 33 370 l 1,13,-1
 132 370 l 1,14,-1
 132 650 l 1,15,-1
 33 650 l 1,16,-1
 33 695 l 1,17,-1
 805 695 l 2,0,1
254 650 m 1,18,-1
 178 650 l 1,19,-1
 178 45 l 1,20,-1
 254 45 l 1,21,-1
 254 650 l 1,18,-1
904 550 m 2,22,23
 904 591 904 591 874.5 620.5 c 128,-1,24
 845 650 845 650 805 650 c 2,25,-1
 299 650 l 1,26,-1
 299 370 l 1,27,-1
 521 370 l 1,28,-1
 521 325 l 1,29,-1
 299 325 l 1,30,-1
 299 45 l 1,31,-1
 805 45 l 2,32,33
 845 45 845 45 874.5 74.5 c 128,-1,34
 904 104 904 104 904 144 c 2,35,-1
 904 550 l 2,22,23
EndSplineSet
EndChar

StartChar: multiply
Encoding: 215 215 150
Width: 810
Flags: W
LayerCount: 2
Fore
SplineSet
762 125 m 1,0,-1
 512 125 l 1,1,-1
 355 265 l 1,2,-1
 173 125 l 1,3,-1
 98 125 l 1,4,-1
 321 296 l 1,5,-1
 48 539 l 1,6,-1
 298 539 l 1,7,-1
 455 400 l 1,8,-1
 638 539 l 1,9,-1
 713 539 l 1,10,-1
 490 369 l 1,11,-1
 762 125 l 1,0,-1
645 170 m 1,12,-1
 282 494 l 1,13,-1
 167 494 l 1,14,-1
 530 170 l 1,15,-1
 645 170 l 1,12,-1
EndSplineSet
EndChar

StartChar: Oslash
Encoding: 216 216 151
Width: 976
Flags: W
LayerCount: 2
Fore
SplineSet
882 0 m 1,0,-1
 224 0 l 1,1,-1
 94 -129 l 1,2,-1
 62 -97 l 1,3,-1
 160 0 l 1,4,-1
 66 0 l 1,5,-1
 66 695 l 1,6,-1
 858 695 l 1,7,-1
 939 775 l 1,8,-1
 970 743 l 1,9,-1
 882 655 l 1,10,-1
 882 0 l 1,0,-1
111 45 m 1,11,-1
 188 45 l 1,12,-1
 188 650 l 1,13,-1
 111 650 l 1,14,-1
 111 45 l 1,11,-1
233 73 m 1,15,-1
 813 650 l 1,16,-1
 233 650 l 1,17,-1
 233 73 l 1,15,-1
837 45 m 1,18,-1
 837 611 l 1,19,-1
 269 45 l 1,20,-1
 837 45 l 1,18,-1
EndSplineSet
EndChar

StartChar: Thorn
Encoding: 222 222 157
Width: 963
Flags: W
LayerCount: 2
Fore
SplineSet
298 176 m 1,0,-1
 298 45 l 1,1,-1
 398 45 l 1,2,-1
 398 0 l 1,3,-1
 32 0 l 1,4,-1
 32 45 l 1,5,-1
 131 45 l 1,6,-1
 131 650 l 1,7,-1
 32 650 l 1,8,-1
 32 695 l 1,9,-1
 397 695 l 1,10,-1
 397 650 l 1,11,-1
 298 650 l 1,12,-1
 298 546 l 1,13,-1
 917 546 l 1,14,-1
 917 176 l 1,15,-1
 298 176 l 1,0,-1
253 650 m 1,16,-1
 177 650 l 1,17,-1
 177 45 l 1,18,-1
 253 45 l 1,19,-1
 253 650 l 1,16,-1
298 221 m 1,20,-1
 872 221 l 1,21,-1
 872 501 l 1,22,-1
 298 501 l 1,23,-1
 298 221 l 1,20,-1
EndSplineSet
EndChar

StartChar: germandbls
Encoding: 223 223 158
Width: 1014
Flags: W
LayerCount: 2
Fore
SplineSet
909 348 m 1,0,1
 949 317 949 317 949 266 c 2,2,-1
 949 0 l 1,3,-1
 430 0 l 1,4,-1
 430 45 l 1,5,-1
 903 45 l 1,6,-1
 903 266 l 2,7,8
 903 291 903 291 886 308 c 128,-1,9
 869 325 869 325 845 325 c 2,10,-1
 430 325 l 1,11,-1
 430 371 l 1,12,-1
 845 371 l 2,13,14
 869 371 869 371 886 388 c 128,-1,15
 903 405 903 405 903 430 c 2,16,-1
 903 650 l 1,17,-1
 299 650 l 1,18,-1
 299 -81 l 1,19,-1
 33 -81 l 1,20,-1
 33 -36 l 1,21,-1
 132 -36 l 1,22,-1
 132 650 l 1,23,-1
 33 650 l 1,24,-1
 33 695 l 1,25,-1
 949 695 l 1,26,-1
 949 430 l 2,27,28
 949 379 949 379 909 348 c 1,0,1
254 650 m 1,29,-1
 178 650 l 1,30,-1
 178 -36 l 1,31,-1
 254 -36 l 1,32,-1
 254 650 l 1,29,-1
EndSplineSet
EndChar

StartChar: ae
Encoding: 230 230 165
Width: 1191
Flags: W
LayerCount: 2
Fore
SplineSet
55 257 m 1,0,-1
 512 257 l 1,1,-1
 512 424 l 1,2,-1
 100 424 l 1,3,-1
 100 347 l 1,4,-1
 55 347 l 1,5,-1
 55 469 l 1,6,-1
 1136 469 l 1,7,-1
 1136 212 l 1,8,-1
 679 212 l 1,9,-1
 679 45 l 1,10,-1
 1091 45 l 1,11,-1
 1091 122 l 1,12,-1
 1136 122 l 1,13,-1
 1136 0 l 1,14,-1
 55 0 l 1,15,-1
 55 257 l 1,0,-1
679 424 m 1,16,-1
 679 257 l 1,17,-1
 1091 257 l 1,18,-1
 1091 424 l 1,19,-1
 679 424 l 1,16,-1
512 45 m 1,20,-1
 512 212 l 1,21,-1
 100 212 l 1,22,-1
 100 45 l 1,23,-1
 512 45 l 1,20,-1
634 424 m 1,24,-1
 557 424 l 1,25,-1
 557 45 l 1,26,-1
 634 45 l 1,27,-1
 634 424 l 1,24,-1
EndSplineSet
EndChar

StartChar: ccedilla
Encoding: 231 231 166
Width: 733
Flags: W
LayerCount: 2
Fore
SplineSet
639 122 m 1,0,-1
 684 122 l 1,1,-1
 684 0 l 1,2,-1
 504 0 l 1,3,-1
 409 -183 l 1,4,-1
 221 -183 l 1,5,-1
 316 0 l 1,6,-1
 60 0 l 1,7,-1
 60 469 l 1,8,-1
 684 469 l 1,9,-1
 684 347 l 1,10,-1
 639 347 l 1,11,-1
 639 424 l 1,12,-1
 227 424 l 1,13,-1
 227 45 l 1,14,-1
 639 45 l 1,15,-1
 639 122 l 1,0,-1
182 424 m 1,16,-1
 105 424 l 1,17,-1
 105 45 l 1,18,-1
 182 45 l 1,19,-1
 182 424 l 1,16,-1
381 -138 m 1,20,-1
 453 0 l 1,21,-1
 368 0 l 1,22,-1
 295 -138 l 1,23,-1
 381 -138 l 1,20,-1
EndSplineSet
EndChar

StartChar: eth
Encoding: 240 240 175
Width: 744
Flags: W
LayerCount: 2
Fore
SplineSet
684 469 m 1,0,-1
 684 0 l 1,1,-1
 60 0 l 1,2,-1
 60 469 l 1,3,-1
 613 469 l 1,4,-1
 367 631 l 1,5,-1
 307 559 l 1,6,-1
 281 581 l 1,7,-1
 338 650 l 1,8,-1
 230 722 l 1,9,-1
 259 757 l 1,10,-1
 366 684 l 1,11,-1
 441 774 l 1,12,-1
 468 752 l 1,13,-1
 395 665 l 1,14,-1
 684 469 l 1,0,-1
182 424 m 1,15,-1
 105 424 l 1,16,-1
 105 45 l 1,17,-1
 182 45 l 1,18,-1
 182 424 l 1,15,-1
639 424 m 1,19,-1
 227 424 l 1,20,-1
 227 45 l 1,21,-1
 639 45 l 1,22,-1
 639 424 l 1,19,-1
EndSplineSet
EndChar

StartChar: divide
Encoding: 247 247 182
Width: 643
Flags: W
LayerCount: 2
Fore
SplineSet
592 409 m 1,0,-1
 592 256 l 1,1,-1
 51 256 l 1,2,-1
 51 409 l 1,3,-1
 592 409 l 1,0,-1
547 364 m 1,4,-1
 96 364 l 1,5,-1
 96 301 l 1,6,-1
 547 301 l 1,7,-1
 547 364 l 1,4,-1
225 218 m 1,8,-1
 417 218 l 1,9,-1
 417 65 l 1,10,-1
 225 65 l 1,11,-1
 225 218 l 1,8,-1
270 110 m 1,12,-1
 372 110 l 1,13,-1
 372 173 l 1,14,-1
 270 173 l 1,15,-1
 270 110 l 1,12,-1
417 448 m 1,16,-1
 225 448 l 1,17,-1
 225 601 l 1,18,-1
 417 601 l 1,19,-1
 417 448 l 1,16,-1
372 556 m 1,20,-1
 270 556 l 1,21,-1
 270 493 l 1,22,-1
 372 493 l 1,23,-1
 372 556 l 1,20,-1
EndSplineSet
EndChar

StartChar: oslash
Encoding: 248 248 183
Width: 744
Flags: W
LayerCount: 2
Fore
SplineSet
760 505 m 1,0,-1
 684 435 l 1,1,-1
 684 0 l 1,2,-1
 211 0 l 1,3,-1
 96 -106 l 1,4,-1
 66 -73 l 1,5,-1
 145 0 l 1,6,-1
 60 0 l 1,7,-1
 60 469 l 1,8,-1
 655 469 l 1,9,-1
 731 538 l 1,10,-1
 760 505 l 1,0,-1
182 45 m 1,11,-1
 182 424 l 1,12,-1
 105 424 l 1,13,-1
 105 45 l 1,14,-1
 182 45 l 1,11,-1
227 76 m 1,15,-1
 606 424 l 1,16,-1
 227 424 l 1,17,-1
 227 76 l 1,15,-1
639 393 m 1,18,-1
 260 45 l 1,19,-1
 639 45 l 1,20,-1
 639 393 l 1,18,-1
EndSplineSet
EndChar

StartChar: thorn
Encoding: 254 254 189
Width: 758
Flags: W
LayerCount: 2
Fore
SplineSet
227 0 m 1,0,-1
 227 -181 l 1,1,-1
 326 -181 l 1,2,-1
 326 -226 l 1,3,-1
 -39 -226 l 1,4,-1
 -39 -181 l 1,5,-1
 60 -181 l 1,6,-1
 60 650 l 1,7,-1
 -39 650 l 1,8,-1
 -39 695 l 1,9,-1
 227 695 l 1,10,-1
 227 469 l 1,11,-1
 698 469 l 1,12,-1
 698 0 l 1,13,-1
 227 0 l 1,0,-1
227 45 m 1,14,-1
 653 45 l 1,15,-1
 653 424 l 1,16,-1
 227 424 l 1,17,-1
 227 45 l 1,14,-1
182 650 m 1,18,-1
 105 650 l 1,19,-1
 105 -181 l 1,20,-1
 182 -181 l 1,21,-1
 182 650 l 1,18,-1
EndSplineSet
EndChar

StartChar: dotlessi
Encoding: 305 305 191
Width: 420
Flags: W
LayerCount: 2
Fore
SplineSet
301 45 m 1,0,-1
 400 45 l 1,1,-1
 400 0 l 1,2,-1
 35 0 l 1,3,-1
 35 45 l 1,4,-1
 134 45 l 1,5,-1
 134 424 l 1,6,-1
 35 424 l 1,7,-1
 35 469 l 1,8,-1
 301 469 l 1,9,-1
 301 45 l 1,0,-1
256 424 m 1,10,-1
 179 424 l 1,11,-1
 179 45 l 1,12,-1
 256 45 l 1,13,-1
 256 424 l 1,10,-1
EndSplineSet
EndChar

StartChar: OE
Encoding: 338 338 192
Width: 1703
Flags: W
LayerCount: 2
Fore
SplineSet
1609 510 m 1,0,-1
 1609 650 l 1,1,-1
 1004 650 l 1,2,-1
 1004 370 l 1,3,-1
 1446 370 l 1,4,-1
 1446 469 l 1,5,-1
 1492 469 l 1,6,-1
 1492 226 l 1,7,-1
 1446 226 l 1,8,-1
 1446 325 l 1,9,-1
 1004 325 l 1,10,-1
 1004 45 l 1,11,-1
 1609 45 l 1,12,-1
 1609 185 l 1,13,-1
 1654 185 l 1,14,-1
 1654 0 l 1,15,-1
 66 0 l 1,16,-1
 66 695 l 1,17,-1
 1654 695 l 1,18,-1
 1654 510 l 1,19,-1
 1609 510 l 1,0,-1
233 45 m 1,20,-1
 837 45 l 1,21,-1
 837 650 l 1,22,-1
 233 650 l 1,23,-1
 233 45 l 1,20,-1
959 650 m 1,24,-1
 882 650 l 1,25,-1
 882 45 l 1,26,-1
 959 45 l 1,27,-1
 959 650 l 1,24,-1
188 45 m 1,28,-1
 188 650 l 1,29,-1
 111 650 l 1,30,-1
 111 45 l 1,31,-1
 188 45 l 1,28,-1
EndSplineSet
EndChar

StartChar: oe
Encoding: 339 339 193
Width: 1318
Flags: W
LayerCount: 2
Fore
SplineSet
60 469 m 1,0,-1
 1263 469 l 1,1,-1
 1263 212 l 1,2,-1
 806 212 l 1,3,-1
 806 45 l 1,4,-1
 1218 45 l 1,5,-1
 1218 122 l 1,6,-1
 1263 122 l 1,7,-1
 1263 0 l 1,8,-1
 60 0 l 1,9,-1
 60 469 l 1,0,-1
639 424 m 1,10,-1
 227 424 l 1,11,-1
 227 45 l 1,12,-1
 639 45 l 1,13,-1
 639 424 l 1,10,-1
806 424 m 1,14,-1
 806 257 l 1,15,-1
 1218 257 l 1,16,-1
 1218 424 l 1,17,-1
 806 424 l 1,14,-1
182 424 m 1,18,-1
 105 424 l 1,19,-1
 105 45 l 1,20,-1
 182 45 l 1,21,-1
 182 424 l 1,18,-1
684 45 m 1,22,-1
 761 45 l 1,23,-1
 761 424 l 1,24,-1
 684 424 l 1,25,-1
 684 45 l 1,22,-1
EndSplineSet
EndChar

StartChar: Scaron
Encoding: 352 352 194
Width: 940
Flags: W
LayerCount: 2
Fore
SplineSet
301 905 m 1,0,-1
 357 905 l 1,1,-1
 424 810 l 1,2,-1
 515 905 l 1,3,-1
 682 905 l 1,4,-1
 558 741 l 1,5,-1
 418 741 l 1,6,-1
 301 905 l 1,0,-1
465 786 m 1,7,-1
 536 786 l 1,8,-1
 592 860 l 1,9,-1
 538 860 l 1,10,-1
 465 786 l 1,7,-1
878 695 m 1,11,-1
 878 510 l 1,12,-1
 833 510 l 1,13,-1
 833 650 l 1,14,-1
 229 650 l 1,15,-1
 229 370 l 1,16,-1
 878 370 l 1,17,-1
 878 0 l 1,18,-1
 62 0 l 1,19,-1
 62 185 l 1,20,-1
 107 185 l 1,21,-1
 107 45 l 1,22,-1
 711 45 l 1,23,-1
 711 325 l 1,24,-1
 62 325 l 1,25,-1
 62 695 l 1,26,-1
 878 695 l 1,11,-1
756 325 m 1,27,-1
 756 45 l 1,28,-1
 833 45 l 1,29,-1
 833 325 l 1,30,-1
 756 325 l 1,27,-1
183 650 m 1,31,-1
 107 650 l 1,32,-1
 107 370 l 1,33,-1
 183 370 l 1,34,-1
 183 650 l 1,31,-1
EndSplineSet
EndChar

StartChar: Zcaron
Encoding: 381 381 197
Width: 901
Flags: W
LayerCount: 2
Fore
SplineSet
251 910 m 1,0,-1
 307 910 l 1,1,-1
 374 815 l 1,2,-1
 465 910 l 1,3,-1
 632 910 l 1,4,-1
 508 746 l 1,5,-1
 368 746 l 1,6,-1
 251 910 l 1,0,-1
415 791 m 1,7,-1
 486 791 l 1,8,-1
 542 865 l 1,9,-1
 488 865 l 1,10,-1
 415 791 l 1,7,-1
863 185 m 1,11,-1
 863 0 l 1,12,-1
 25 0 l 1,13,-1
 612 650 l 1,14,-1
 84 650 l 1,15,-1
 84 510 l 1,16,-1
 39 510 l 1,17,-1
 39 695 l 1,18,-1
 877 695 l 1,19,-1
 291 45 l 1,20,-1
 818 45 l 1,21,-1
 818 185 l 1,22,-1
 863 185 l 1,11,-1
776 650 m 1,23,-1
 672 650 l 1,24,-1
 127 45 l 1,25,-1
 230 45 l 1,26,-1
 776 650 l 1,23,-1
EndSplineSet
EndChar

StartChar: florin
Encoding: 402 402 199
Width: 811
Flags: W
LayerCount: 2
Fore
SplineSet
772 695 m 1,0,-1
 772 510 l 1,1,-1
 727 510 l 1,2,-1
 727 650 l 1,3,-1
 326 650 l 1,4,-1
 326 351 l 1,5,-1
 609 351 l 1,6,-1
 609 306 l 1,7,-1
 326 306 l 1,8,-1
 326 -96 l 1,9,-1
 425 -96 l 1,10,-1
 425 -141 l 1,11,-1
 60 -141 l 1,12,-1
 60 -96 l 1,13,-1
 159 -96 l 1,14,-1
 159 306 l 1,15,-1
 60 306 l 1,16,-1
 60 351 l 1,17,-1
 159 351 l 1,18,-1
 159 650 l 1,19,-1
 60 650 l 1,20,-1
 60 695 l 1,21,-1
 772 695 l 1,0,-1
281 650 m 1,22,-1
 204 650 l 1,23,-1
 204 -96 l 1,24,-1
 281 -96 l 1,25,-1
 281 650 l 1,22,-1
EndSplineSet
EndChar

StartChar: circumflex
Encoding: 710 710 200
Width: 524
Flags: W
LayerCount: 2
Fore
SplineSet
447 546 m 1,0,-1
 391 546 l 1,1,-1
 324 641 l 1,2,-1
 233 546 l 1,3,-1
 66 546 l 1,4,-1
 190 710 l 1,5,-1
 330 710 l 1,6,-1
 447 546 l 1,0,-1
283 665 m 1,7,-1
 212 665 l 1,8,-1
 156 591 l 1,9,-1
 210 591 l 1,10,-1
 283 665 l 1,7,-1
EndSplineSet
EndChar

StartChar: caron
Encoding: 711 711 201
Width: 502
Flags: W
LayerCount: 2
Fore
SplineSet
66 710 m 1,0,-1
 122 710 l 1,1,-1
 189 615 l 1,2,-1
 280 710 l 1,3,-1
 447 710 l 1,4,-1
 323 546 l 1,5,-1
 183 546 l 1,6,-1
 66 710 l 1,0,-1
230 591 m 1,7,-1
 301 591 l 1,8,-1
 357 665 l 1,9,-1
 303 665 l 1,10,-1
 230 591 l 1,7,-1
EndSplineSet
EndChar

StartChar: dotaccent
Encoding: 729 729 202
Width: 356
Flags: W
LayerCount: 2
Fore
SplineSet
260 546 m 1,0,-1
 95 546 l 1,1,-1
 95 688 l 1,2,-1
 260 688 l 1,3,-1
 260 546 l 1,0,-1
215 643 m 1,4,-1
 140 643 l 1,5,-1
 140 591 l 1,6,-1
 215 591 l 1,7,-1
 215 643 l 1,4,-1
EndSplineSet
EndChar

StartChar: ring
Encoding: 730 730 203
Width: 540
Flags: W
LayerCount: 2
Fore
SplineSet
367 546 m 1,0,-1
 154 546 l 1,1,-1
 154 722 l 1,2,-1
 367 722 l 1,3,-1
 367 546 l 1,0,-1
322 677 m 1,4,-1
 199 677 l 1,5,-1
 199 591 l 1,6,-1
 322 591 l 1,7,-1
 322 677 l 1,4,-1
EndSplineSet
EndChar

StartChar: tilde
Encoding: 732 732 204
Width: 733
Flags: W
LayerCount: 2
Fore
SplineSet
525 546 m 1,0,-1
 391 546 l 1,1,-1
 324 641 l 1,2,-1
 233 546 l 1,3,-1
 66 546 l 1,4,-1
 190 710 l 1,5,-1
 330 710 l 1,6,-1
 403 607 l 1,7,-1
 482 710 l 1,8,-1
 681 710 l 1,9,-1
 525 546 l 1,0,-1
575 665 m 1,10,-1
 504 665 l 1,11,-1
 448 591 l 1,12,-1
 502 591 l 1,13,-1
 575 665 l 1,10,-1
283 665 m 1,14,-1
 212 665 l 1,15,-1
 156 591 l 1,16,-1
 210 591 l 1,17,-1
 283 665 l 1,14,-1
EndSplineSet
EndChar

StartChar: hungarumlaut
Encoding: 733 733 205
Width: 744
Flags: W
LayerCount: 2
Fore
SplineSet
389 710 m 1,0,-1
 233 546 l 1,1,-1
 66 546 l 1,2,-1
 190 710 l 1,3,-1
 389 710 l 1,0,-1
283 665 m 1,4,-1
 212 665 l 1,5,-1
 156 591 l 1,6,-1
 210 591 l 1,7,-1
 283 665 l 1,4,-1
681 710 m 1,8,-1
 525 546 l 1,9,-1
 358 546 l 1,10,-1
 482 710 l 1,11,-1
 681 710 l 1,8,-1
575 665 m 1,12,-1
 504 665 l 1,13,-1
 448 591 l 1,14,-1
 502 591 l 1,15,-1
 575 665 l 1,12,-1
EndSplineSet
EndChar

StartChar: endash
Encoding: 8211 8211 206
Width: 640
Flags: W
LayerCount: 2
Fore
SplineSet
581 256 m 1,0,-1
 59 256 l 1,1,-1
 59 409 l 1,2,-1
 581 409 l 1,3,-1
 581 256 l 1,0,-1
536 364 m 1,4,-1
 104 364 l 1,5,-1
 104 301 l 1,6,-1
 536 301 l 1,7,-1
 536 364 l 1,4,-1
EndSplineSet
EndChar

StartChar: emdash
Encoding: 8212 8212 207
Width: 789
Flags: W
LayerCount: 2
Fore
SplineSet
730 256 m 1,0,-1
 59 256 l 1,1,-1
 59 409 l 1,2,-1
 730 409 l 1,3,-1
 730 256 l 1,0,-1
685 364 m 1,4,-1
 104 364 l 1,5,-1
 104 301 l 1,6,-1
 685 301 l 1,7,-1
 685 364 l 1,4,-1
EndSplineSet
EndChar

StartChar: quoteleft
Encoding: 8216 8216 208
Width: 375
Flags: W
LayerCount: 2
Fore
SplineSet
175 754 m 1,0,-1
 331 454 l 1,1,-1
 143 454 l 1,2,-1
 -13 754 l 1,3,-1
 175 754 l 1,0,-1
257 499 m 1,4,-1
 148 709 l 1,5,-1
 62 709 l 1,6,-1
 171 499 l 1,7,-1
 257 499 l 1,4,-1
EndSplineSet
EndChar

StartChar: quoteright
Encoding: 8217 8217 209
Width: 375
Flags: W
LayerCount: 2
Fore
SplineSet
388 754 m 1,0,-1
 232 454 l 1,1,-1
 44 454 l 1,2,-1
 200 754 l 1,3,-1
 388 754 l 1,0,-1
204 499 m 1,4,-1
 313 709 l 1,5,-1
 227 709 l 1,6,-1
 118 499 l 1,7,-1
 204 499 l 1,4,-1
EndSplineSet
EndChar

StartChar: quotesinglbase
Encoding: 8218 8218 210
Width: 362
Flags: W
LayerCount: 2
Fore
SplineSet
303 153 m 1,0,-1
 147 -147 l 1,1,-1
 -41 -147 l 1,2,-1
 115 153 l 1,3,-1
 303 153 l 1,0,-1
119 -102 m 1,4,-1
 228 108 l 1,5,-1
 142 108 l 1,6,-1
 33 -102 l 1,7,-1
 119 -102 l 1,4,-1
EndSplineSet
EndChar

StartChar: quotedblleft
Encoding: 8220 8220 211
Width: 652
Flags: W
LayerCount: 2
Fore
SplineSet
452 754 m 1,0,-1
 608 454 l 1,1,-1
 420 454 l 1,2,-1
 264 754 l 1,3,-1
 452 754 l 1,0,-1
534 499 m 1,4,-1
 425 709 l 1,5,-1
 339 709 l 1,6,-1
 448 499 l 1,7,-1
 534 499 l 1,4,-1
175 754 m 1,8,-1
 331 454 l 1,9,-1
 143 454 l 1,10,-1
 -13 754 l 1,11,-1
 175 754 l 1,8,-1
257 499 m 1,12,-1
 148 709 l 1,13,-1
 62 709 l 1,14,-1
 171 499 l 1,15,-1
 257 499 l 1,12,-1
EndSplineSet
EndChar

StartChar: quotedblright
Encoding: 8221 8221 212
Width: 652
Flags: W
LayerCount: 2
Fore
SplineSet
388 754 m 1,0,-1
 232 454 l 1,1,-1
 44 454 l 1,2,-1
 200 754 l 1,3,-1
 388 754 l 1,0,-1
204 499 m 1,4,-1
 313 709 l 1,5,-1
 227 709 l 1,6,-1
 118 499 l 1,7,-1
 204 499 l 1,4,-1
665 754 m 1,8,-1
 509 454 l 1,9,-1
 321 454 l 1,10,-1
 477 754 l 1,11,-1
 665 754 l 1,8,-1
481 499 m 1,12,-1
 590 709 l 1,13,-1
 504 709 l 1,14,-1
 395 499 l 1,15,-1
 481 499 l 1,12,-1
EndSplineSet
EndChar

StartChar: quotedblbase
Encoding: 8222 8222 213
Width: 639
Flags: W
LayerCount: 2
Fore
SplineSet
303 153 m 1,0,-1
 147 -147 l 1,1,-1
 -41 -147 l 1,2,-1
 115 153 l 1,3,-1
 303 153 l 1,0,-1
119 -102 m 1,4,-1
 228 108 l 1,5,-1
 142 108 l 1,6,-1
 33 -102 l 1,7,-1
 119 -102 l 1,4,-1
580 153 m 1,8,-1
 424 -147 l 1,9,-1
 236 -147 l 1,10,-1
 392 153 l 1,11,-1
 580 153 l 1,8,-1
396 -102 m 1,12,-1
 505 108 l 1,13,-1
 419 108 l 1,14,-1
 310 -102 l 1,15,-1
 396 -102 l 1,12,-1
EndSplineSet
EndChar

StartChar: dagger
Encoding: 8224 8224 214
Width: 560
Flags: W
LayerCount: 2
Fore
SplineSet
522 488 m 1,0,-1
 522 442 l 1,1,-1
 363 442 l 1,2,-1
 363 -61 l 1,3,-1
 196 -61 l 1,4,-1
 196 442 l 1,5,-1
 38 442 l 1,6,-1
 38 488 l 1,7,-1
 196 488 l 1,8,-1
 196 710 l 1,9,-1
 363 710 l 1,10,-1
 363 488 l 1,11,-1
 522 488 l 1,0,-1
317 665 m 1,12,-1
 241 665 l 1,13,-1
 241 -16 l 1,14,-1
 317 -16 l 1,15,-1
 317 665 l 1,12,-1
EndSplineSet
EndChar

StartChar: daggerdbl
Encoding: 8225 8225 215
Width: 582
Flags: W
LayerCount: 2
Fore
SplineSet
374 442 m 1,0,-1
 374 207 l 1,1,-1
 533 207 l 1,2,-1
 533 161 l 1,3,-1
 374 161 l 1,4,-1
 374 -61 l 1,5,-1
 207 -61 l 1,6,-1
 207 161 l 1,7,-1
 49 161 l 1,8,-1
 49 207 l 1,9,-1
 207 207 l 1,10,-1
 207 442 l 1,11,-1
 49 442 l 1,12,-1
 49 488 l 1,13,-1
 207 488 l 1,14,-1
 207 710 l 1,15,-1
 374 710 l 1,16,-1
 374 488 l 1,17,-1
 533 488 l 1,18,-1
 533 442 l 1,19,-1
 374 442 l 1,0,-1
328 665 m 1,20,-1
 252 665 l 1,21,-1
 252 -16 l 1,22,-1
 328 -16 l 1,23,-1
 328 665 l 1,20,-1
EndSplineSet
EndChar

StartChar: bullet
Encoding: 8226 8226 216
Width: 396
Flags: W
LayerCount: 2
Fore
SplineSet
317 237 m 1,0,-1
 79 237 l 1,1,-1
 79 428 l 1,2,-1
 317 428 l 1,3,-1
 317 237 l 1,0,-1
EndSplineSet
EndChar

StartChar: ellipsis
Encoding: 8230 8230 217
Width: 1180
Flags: W
LayerCount: 2
Fore
SplineSet
251 0 m 1,0,-1
 59 0 l 1,1,-1
 59 153 l 1,2,-1
 251 153 l 1,3,-1
 251 0 l 1,0,-1
206 108 m 1,4,-1
 104 108 l 1,5,-1
 104 45 l 1,6,-1
 206 45 l 1,7,-1
 206 108 l 1,4,-1
686 0 m 1,8,-1
 494 0 l 1,9,-1
 494 153 l 1,10,-1
 686 153 l 1,11,-1
 686 0 l 1,8,-1
641 108 m 1,12,-1
 539 108 l 1,13,-1
 539 45 l 1,14,-1
 641 45 l 1,15,-1
 641 108 l 1,12,-1
1121 0 m 1,16,-1
 929 0 l 1,17,-1
 929 153 l 1,18,-1
 1121 153 l 1,19,-1
 1121 0 l 1,16,-1
1076 108 m 1,20,-1
 974 108 l 1,21,-1
 974 45 l 1,22,-1
 1076 45 l 1,23,-1
 1076 108 l 1,20,-1
EndSplineSet
EndChar

StartChar: perthousand
Encoding: 8240 8240 218
Width: 1236
Flags: W
LayerCount: 2
Fore
SplineSet
882 695 m 1,0,-1
 250 0 l 1,1,-1
 44 0 l 1,2,-1
 676 695 l 1,3,-1
 882 695 l 1,0,-1
779 650 m 1,4,-1
 696 650 l 1,5,-1
 146 45 l 1,6,-1
 229 45 l 1,7,-1
 779 650 l 1,4,-1
71 695 m 1,8,-1
 344 695 l 1,9,-1
 344 497 l 1,10,-1
 71 497 l 1,11,-1
 71 695 l 1,8,-1
116 542 m 1,12,-1
 299 542 l 1,13,-1
 299 650 l 1,14,-1
 116 650 l 1,15,-1
 116 542 l 1,12,-1
583 198 m 1,16,-1
 856 198 l 1,17,-1
 856 0 l 1,18,-1
 583 0 l 1,19,-1
 583 198 l 1,16,-1
628 45 m 1,20,-1
 811 45 l 1,21,-1
 811 153 l 1,22,-1
 628 153 l 1,23,-1
 628 45 l 1,20,-1
920 198 m 1,24,-1
 1193 198 l 1,25,-1
 1193 0 l 1,26,-1
 920 0 l 1,27,-1
 920 198 l 1,24,-1
965 45 m 1,28,-1
 1148 45 l 1,29,-1
 1148 153 l 1,30,-1
 965 153 l 1,31,-1
 965 45 l 1,28,-1
EndSplineSet
EndChar

StartChar: guilsinglleft
Encoding: 8249 8249 219
Width: 514
Flags: W
LayerCount: 2
Fore
SplineSet
446 518 m 1,0,-1
 446 468 l 1,1,-1
 270 378 l 1,2,-1
 446 289 l 1,3,-1
 446 103 l 1,4,-1
 35 310 l 1,5,-1
 446 518 l 1,0,-1
220 353 m 1,6,-1
 136 311 l 1,7,-1
 401 177 l 1,8,-1
 401 262 l 1,9,-1
 220 353 l 1,6,-1
EndSplineSet
EndChar

StartChar: guilsinglright
Encoding: 8250 8250 220
Width: 517
Flags: W
LayerCount: 2
Fore
SplineSet
69 103 m 1,0,-1
 69 153 l 1,1,-1
 245 243 l 1,2,-1
 69 332 l 1,3,-1
 69 518 l 1,4,-1
 480 311 l 1,5,-1
 69 103 l 1,0,-1
295 268 m 1,6,-1
 379 310 l 1,7,-1
 114 444 l 1,8,-1
 114 359 l 1,9,-1
 295 268 l 1,6,-1
EndSplineSet
EndChar

StartChar: fraction
Encoding: 8260 8260 221
Width: 718
Flags: W
LayerCount: 2
Fore
SplineSet
746 738 m 1,0,-1
 146 -44 l 1,1,-1
 -24 -44 l 1,2,-1
 576 738 l 1,3,-1
 746 738 l 1,0,-1
654 693 m 1,4,-1
 598 693 l 1,5,-1
 67 1 l 1,6,-1
 123 1 l 1,7,-1
 654 693 l 1,4,-1
EndSplineSet
EndChar

StartChar: Euro
Encoding: 8364 8364 222
Width: 981
Flags: W
LayerCount: 2
Fore
SplineSet
878 510 m 1,0,-1
 878 650 l 1,1,-1
 321 650 l 1,2,-1
 321 431 l 1,3,-1
 545 431 l 1,4,-1
 545 386 l 1,5,-1
 321 386 l 1,6,-1
 321 310 l 1,7,-1
 545 310 l 1,8,-1
 545 265 l 1,9,-1
 321 265 l 1,10,-1
 321 45 l 1,11,-1
 878 45 l 1,12,-1
 878 185 l 1,13,-1
 923 185 l 1,14,-1
 923 0 l 1,15,-1
 55 0 l 1,16,-1
 55 45 l 1,17,-1
 154 45 l 1,18,-1
 154 265 l 1,19,-1
 55 265 l 1,20,-1
 55 310 l 1,21,-1
 154 310 l 1,22,-1
 154 386 l 1,23,-1
 55 386 l 1,24,-1
 55 431 l 1,25,-1
 154 431 l 1,26,-1
 154 650 l 1,27,-1
 55 650 l 1,28,-1
 55 695 l 1,29,-1
 923 695 l 1,30,-1
 923 510 l 1,31,-1
 878 510 l 1,0,-1
276 650 m 1,32,-1
 200 650 l 1,33,-1
 200 45 l 1,34,-1
 276 45 l 1,35,-1
 276 650 l 1,32,-1
EndSplineSet
EndChar

StartChar: trademark
Encoding: 8482 8482 223
Width: 1550
Flags: W
LayerCount: 2
Fore
SplineSet
97 602 m 1,0,-1
 67 602 l 1,1,-1
 67 695 l 1,2,-1
 589 695 l 1,3,-1
 589 602 l 1,4,-1
 559 602 l 1,5,-1
 559 665 l 1,6,-1
 404 665 l 1,7,-1
 404 380 l 1,8,-1
 473 380 l 1,9,-1
 473 350 l 1,10,-1
 184 350 l 1,11,-1
 184 380 l 1,12,-1
 252 380 l 1,13,-1
 252 665 l 1,14,-1
 97 665 l 1,15,-1
 97 602 l 1,0,-1
282 380 m 1,16,-1
 374 380 l 1,17,-1
 374 665 l 1,18,-1
 282 665 l 1,19,-1
 282 380 l 1,16,-1
1416 380 m 1,20,-1
 1484 380 l 1,21,-1
 1484 350 l 1,22,-1
 1196 350 l 1,23,-1
 1196 380 l 1,24,-1
 1264 380 l 1,25,-1
 1264 627 l 1,26,-1
 1072 352 l 1,27,-1
 881 627 l 1,28,-1
 881 380 l 1,29,-1
 949 380 l 1,30,-1
 949 350 l 1,31,-1
 661 350 l 1,32,-1
 661 380 l 1,33,-1
 729 380 l 1,34,-1
 729 665 l 1,35,-1
 661 665 l 1,36,-1
 661 695 l 1,37,-1
 875 695 l 1,38,-1
 1072 411 l 1,39,-1
 1270 695 l 1,40,-1
 1484 695 l 1,41,-1
 1484 665 l 1,42,-1
 1416 665 l 1,43,-1
 1416 380 l 1,20,-1
850 665 m 1,44,-1
 759 665 l 1,45,-1
 759 380 l 1,46,-1
 850 380 l 1,47,-1
 850 665 l 1,44,-1
1386 665 m 1,48,-1
 1295 665 l 1,49,-1
 1295 380 l 1,50,-1
 1386 380 l 1,51,-1
 1386 665 l 1,48,-1
EndSplineSet
EndChar

StartChar: minus
Encoding: 8722 8722 224
Width: 585
Flags: W
LayerCount: 2
Fore
SplineSet
526 256 m 1,0,-1
 59 256 l 1,1,-1
 59 409 l 1,2,-1
 526 409 l 1,3,-1
 526 256 l 1,0,-1
481 364 m 1,4,-1
 104 364 l 1,5,-1
 104 301 l 1,6,-1
 481 301 l 1,7,-1
 481 364 l 1,4,-1
EndSplineSet
EndChar

StartChar: dollar.alt
Encoding: 65539 -1 225
Width: 926
Flags: W
LayerCount: 2
Fore
SplineSet
826 510 m 1,0,-1
 826 650 l 1,1,-1
 222 650 l 1,2,-1
 222 370 l 1,3,-1
 871 370 l 1,4,-1
 871 0 l 1,5,-1
 485 0 l 1,6,-1
 485 -146 l 1,7,-1
 440 -146 l 1,8,-1
 440 0 l 1,9,-1
 55 0 l 1,10,-1
 55 185 l 1,11,-1
 100 185 l 1,12,-1
 100 45 l 1,13,-1
 704 45 l 1,14,-1
 704 325 l 1,15,-1
 55 325 l 1,16,-1
 55 695 l 1,17,-1
 440 695 l 1,18,-1
 440 841 l 1,19,-1
 485 841 l 1,20,-1
 485 695 l 1,21,-1
 871 695 l 1,22,-1
 871 510 l 1,23,-1
 826 510 l 1,0,-1
749 45 m 1,24,-1
 826 45 l 1,25,-1
 826 325 l 1,26,-1
 749 325 l 1,27,-1
 749 45 l 1,24,-1
176 650 m 1,28,-1
 100 650 l 1,29,-1
 100 370 l 1,30,-1
 176 370 l 1,31,-1
 176 650 l 1,28,-1
EndSplineSet
EndChar

